<mxfile host="app.diagrams.net" agent="Mozilla/5.0 (Windows NT 10.0; Win64; x64) AppleWebKit/537.36 (KHTML, like Gecko) Chrome/131.0.0.0 Safari/537.36 Edg/131.0.0.0" version="25.0.3">
  <diagram name="Page-1" id="Yoh4etxz1kqKvep222xD">
    <mxGraphModel dx="2037" dy="1067" grid="1" gridSize="10" guides="1" tooltips="1" connect="1" arrows="1" fold="1" page="1" pageScale="1" pageWidth="850" pageHeight="1100" math="0" shadow="0">
      <root>
        <mxCell id="0" />
        <mxCell id="1" parent="0" />
        <mxCell id="0_cYDMR8rZRcAgZqIZk2-1" value="&lt;font size=&quot;1&quot;&gt;&lt;b style=&quot;font-size: 30px;&quot;&gt;1&lt;/b&gt;&lt;/font&gt;" style="ellipse;whiteSpace=wrap;html=1;aspect=fixed;fillColor=#008a00;fontColor=#ffffff;strokeColor=#005700;" parent="1" vertex="1">
          <mxGeometry x="135" y="370" width="80" height="80" as="geometry" />
        </mxCell>
        <mxCell id="0_cYDMR8rZRcAgZqIZk2-7" value="# 7" style="text;html=1;align=center;verticalAlign=middle;resizable=0;points=[];autosize=1;strokeColor=none;fillColor=none;fontColor=#FFFCFE;" parent="1" vertex="1">
          <mxGeometry x="155" y="370" width="40" height="30" as="geometry" />
        </mxCell>
        <mxCell id="0_cYDMR8rZRcAgZqIZk2-190" value="&lt;b&gt;&lt;font style=&quot;font-size: 36px;&quot;&gt;GetPrice&lt;/font&gt;&lt;/b&gt;" style="text;html=1;align=center;verticalAlign=middle;whiteSpace=wrap;rounded=0;" parent="1" vertex="1">
          <mxGeometry x="235" y="260" width="160" height="30" as="geometry" />
        </mxCell>
        <mxCell id="b-FuEQzht5JCh_GCsAq7-3" value="&lt;font size=&quot;1&quot;&gt;&lt;b style=&quot;font-size: 30px;&quot;&gt;3&lt;/b&gt;&lt;/font&gt;" style="ellipse;whiteSpace=wrap;html=1;aspect=fixed;fillColor=#0050ef;fontColor=#ffffff;strokeColor=#001DBC;" parent="1" vertex="1">
          <mxGeometry x="412" y="370" width="80" height="80" as="geometry" />
        </mxCell>
        <mxCell id="b-FuEQzht5JCh_GCsAq7-4" value="# 13-14" style="text;html=1;align=center;verticalAlign=middle;resizable=0;points=[];autosize=1;strokeColor=none;fillColor=none;fontColor=#FFFCFE;" parent="1" vertex="1">
          <mxGeometry x="422" y="370" width="60" height="30" as="geometry" />
        </mxCell>
        <mxCell id="b-FuEQzht5JCh_GCsAq7-6" value="&lt;font size=&quot;1&quot;&gt;&lt;b style=&quot;font-size: 30px;&quot;&gt;2&lt;/b&gt;&lt;/font&gt;" style="ellipse;whiteSpace=wrap;html=1;aspect=fixed;fillColor=#0050ef;fontColor=#ffffff;strokeColor=#001DBC;" parent="1" vertex="1">
          <mxGeometry x="135" y="511" width="80" height="80" as="geometry" />
        </mxCell>
        <mxCell id="b-FuEQzht5JCh_GCsAq7-7" value="# 11" style="text;html=1;align=center;verticalAlign=middle;resizable=0;points=[];autosize=1;strokeColor=none;fillColor=none;fontColor=#FFFCFE;" parent="1" vertex="1">
          <mxGeometry x="150" y="511" width="50" height="30" as="geometry" />
        </mxCell>
        <mxCell id="b-FuEQzht5JCh_GCsAq7-8" value="// 42" style="text;html=1;align=center;verticalAlign=middle;resizable=0;points=[];autosize=1;strokeColor=none;fillColor=none;fontColor=#FFFCFE;" parent="1" vertex="1">
          <mxGeometry x="442" y="487" width="50" height="30" as="geometry" />
        </mxCell>
        <mxCell id="b-FuEQzht5JCh_GCsAq7-9" value="&lt;font size=&quot;1&quot;&gt;&lt;b style=&quot;font-size: 30px;&quot;&gt;4&lt;/b&gt;&lt;/font&gt;" style="ellipse;whiteSpace=wrap;html=1;aspect=fixed;fillColor=#0050ef;fontColor=#ffffff;strokeColor=#001DBC;" parent="1" vertex="1">
          <mxGeometry x="412" y="510" width="80" height="80" as="geometry" />
        </mxCell>
        <mxCell id="b-FuEQzht5JCh_GCsAq7-10" value="# 15" style="text;html=1;align=center;verticalAlign=middle;resizable=0;points=[];autosize=1;strokeColor=none;fillColor=none;fontColor=#FFFCFE;" parent="1" vertex="1">
          <mxGeometry x="427" y="510" width="50" height="30" as="geometry" />
        </mxCell>
        <mxCell id="b-FuEQzht5JCh_GCsAq7-11" value="&lt;font size=&quot;1&quot;&gt;&lt;b style=&quot;font-size: 30px;&quot;&gt;8&lt;/b&gt;&lt;/font&gt;" style="ellipse;whiteSpace=wrap;html=1;aspect=fixed;fillColor=#f8cecc;strokeColor=#b85450;" parent="1" vertex="1">
          <mxGeometry x="135" y="791" width="80" height="80" as="geometry" />
        </mxCell>
        <mxCell id="b-FuEQzht5JCh_GCsAq7-12" value="&lt;font color=&quot;#0f0f0f&quot;&gt;# 26&lt;/font&gt;" style="text;html=1;align=center;verticalAlign=middle;resizable=0;points=[];autosize=1;strokeColor=none;fillColor=none;fontColor=#FFFCFE;" parent="1" vertex="1">
          <mxGeometry x="150" y="791" width="50" height="30" as="geometry" />
        </mxCell>
        <mxCell id="b-FuEQzht5JCh_GCsAq7-13" value="&lt;font size=&quot;1&quot;&gt;&lt;b style=&quot;font-size: 30px;&quot;&gt;5&lt;/b&gt;&lt;/font&gt;" style="ellipse;whiteSpace=wrap;html=1;aspect=fixed;fillColor=#0050ef;fontColor=#ffffff;strokeColor=#001DBC;" parent="1" vertex="1">
          <mxGeometry x="270" y="651" width="80" height="80" as="geometry" />
        </mxCell>
        <mxCell id="b-FuEQzht5JCh_GCsAq7-14" value="# 17-18" style="text;html=1;align=center;verticalAlign=middle;resizable=0;points=[];autosize=1;strokeColor=none;fillColor=none;fontColor=#FFFCFE;" parent="1" vertex="1">
          <mxGeometry x="280" y="651" width="60" height="30" as="geometry" />
        </mxCell>
        <mxCell id="b-FuEQzht5JCh_GCsAq7-15" value="&lt;font size=&quot;1&quot;&gt;&lt;b style=&quot;font-size: 30px;&quot;&gt;6&lt;/b&gt;&lt;/font&gt;" style="ellipse;whiteSpace=wrap;html=1;aspect=fixed;fillColor=#0050ef;fontColor=#ffffff;strokeColor=#001DBC;" parent="1" vertex="1">
          <mxGeometry x="410" y="651" width="80" height="80" as="geometry" />
        </mxCell>
        <mxCell id="b-FuEQzht5JCh_GCsAq7-16" value="# 20" style="text;html=1;align=center;verticalAlign=middle;resizable=0;points=[];autosize=1;strokeColor=none;fillColor=none;fontColor=#FFFCFE;" parent="1" vertex="1">
          <mxGeometry x="425" y="651" width="50" height="30" as="geometry" />
        </mxCell>
        <mxCell id="b-FuEQzht5JCh_GCsAq7-17" value="&lt;font size=&quot;1&quot;&gt;&lt;b style=&quot;font-size: 30px;&quot;&gt;7&lt;/b&gt;&lt;/font&gt;" style="ellipse;whiteSpace=wrap;html=1;aspect=fixed;fillColor=#0050ef;fontColor=#ffffff;strokeColor=#001DBC;" parent="1" vertex="1">
          <mxGeometry x="407" y="791" width="80" height="80" as="geometry" />
        </mxCell>
        <mxCell id="b-FuEQzht5JCh_GCsAq7-18" value="# 22-23" style="text;html=1;align=center;verticalAlign=middle;resizable=0;points=[];autosize=1;strokeColor=none;fillColor=none;fontColor=#FFFCFE;" parent="1" vertex="1">
          <mxGeometry x="417" y="791" width="60" height="30" as="geometry" />
        </mxCell>
        <mxCell id="b-FuEQzht5JCh_GCsAq7-20" value="" style="endArrow=classic;html=1;rounded=0;" parent="1" target="b-FuEQzht5JCh_GCsAq7-6" edge="1">
          <mxGeometry width="50" height="50" relative="1" as="geometry">
            <mxPoint x="175" y="451" as="sourcePoint" />
            <mxPoint x="100" y="401" as="targetPoint" />
          </mxGeometry>
        </mxCell>
        <mxCell id="b-FuEQzht5JCh_GCsAq7-21" value="" style="endArrow=classic;html=1;rounded=0;" parent="1" source="b-FuEQzht5JCh_GCsAq7-6" target="b-FuEQzht5JCh_GCsAq7-11" edge="1">
          <mxGeometry width="50" height="50" relative="1" as="geometry">
            <mxPoint x="50" y="561" as="sourcePoint" />
            <mxPoint x="100" y="511" as="targetPoint" />
          </mxGeometry>
        </mxCell>
        <mxCell id="b-FuEQzht5JCh_GCsAq7-22" value="" style="endArrow=classic;html=1;rounded=0;" parent="1" target="b-FuEQzht5JCh_GCsAq7-3" edge="1">
          <mxGeometry width="50" height="50" relative="1" as="geometry">
            <mxPoint x="215" y="411" as="sourcePoint" />
            <mxPoint x="360" y="341" as="targetPoint" />
          </mxGeometry>
        </mxCell>
        <mxCell id="b-FuEQzht5JCh_GCsAq7-23" value="" style="endArrow=classic;html=1;rounded=0;" parent="1" source="b-FuEQzht5JCh_GCsAq7-3" target="b-FuEQzht5JCh_GCsAq7-9" edge="1">
          <mxGeometry width="50" height="50" relative="1" as="geometry">
            <mxPoint x="590" y="571" as="sourcePoint" />
            <mxPoint x="640" y="521" as="targetPoint" />
          </mxGeometry>
        </mxCell>
        <mxCell id="b-FuEQzht5JCh_GCsAq7-24" value="" style="endArrow=classic;html=1;rounded=0;" parent="1" source="b-FuEQzht5JCh_GCsAq7-9" target="b-FuEQzht5JCh_GCsAq7-13" edge="1">
          <mxGeometry width="50" height="50" relative="1" as="geometry">
            <mxPoint x="310" y="541" as="sourcePoint" />
            <mxPoint x="360" y="491" as="targetPoint" />
          </mxGeometry>
        </mxCell>
        <mxCell id="b-FuEQzht5JCh_GCsAq7-25" value="" style="endArrow=classic;html=1;rounded=0;" parent="1" source="b-FuEQzht5JCh_GCsAq7-9" target="b-FuEQzht5JCh_GCsAq7-15" edge="1">
          <mxGeometry width="50" height="50" relative="1" as="geometry">
            <mxPoint x="590" y="661" as="sourcePoint" />
            <mxPoint x="640" y="611" as="targetPoint" />
          </mxGeometry>
        </mxCell>
        <mxCell id="b-FuEQzht5JCh_GCsAq7-26" value="" style="endArrow=classic;html=1;rounded=0;" parent="1" source="b-FuEQzht5JCh_GCsAq7-13" target="b-FuEQzht5JCh_GCsAq7-11" edge="1">
          <mxGeometry width="50" height="50" relative="1" as="geometry">
            <mxPoint x="310" y="591" as="sourcePoint" />
            <mxPoint x="360" y="541" as="targetPoint" />
          </mxGeometry>
        </mxCell>
        <mxCell id="b-FuEQzht5JCh_GCsAq7-27" value="" style="endArrow=classic;html=1;rounded=0;exitX=0;exitY=1;exitDx=0;exitDy=0;" parent="1" source="b-FuEQzht5JCh_GCsAq7-15" target="b-FuEQzht5JCh_GCsAq7-11" edge="1">
          <mxGeometry width="50" height="50" relative="1" as="geometry">
            <mxPoint x="520" y="771" as="sourcePoint" />
            <mxPoint x="570" y="721" as="targetPoint" />
          </mxGeometry>
        </mxCell>
        <mxCell id="b-FuEQzht5JCh_GCsAq7-28" value="" style="endArrow=classic;html=1;rounded=0;" parent="1" source="b-FuEQzht5JCh_GCsAq7-15" target="b-FuEQzht5JCh_GCsAq7-17" edge="1">
          <mxGeometry width="50" height="50" relative="1" as="geometry">
            <mxPoint x="560" y="711" as="sourcePoint" />
            <mxPoint x="610" y="661" as="targetPoint" />
          </mxGeometry>
        </mxCell>
        <mxCell id="b-FuEQzht5JCh_GCsAq7-29" value="" style="endArrow=classic;html=1;rounded=0;" parent="1" source="b-FuEQzht5JCh_GCsAq7-17" target="b-FuEQzht5JCh_GCsAq7-11" edge="1">
          <mxGeometry width="50" height="50" relative="1" as="geometry">
            <mxPoint x="380" y="941" as="sourcePoint" />
            <mxPoint x="430" y="891" as="targetPoint" />
          </mxGeometry>
        </mxCell>
        <mxCell id="b-FuEQzht5JCh_GCsAq7-34" value="&lt;div style=&quot;&quot;&gt;&lt;br&gt;&lt;/div&gt;&lt;div&gt;&lt;div style=&quot;&quot;&gt;&lt;font style=&quot;font-size: 21px;&quot;&gt;E = Edges,&amp;nbsp;&lt;/font&gt;&lt;span style=&quot;font-size: 21px; background-color: initial;&quot;&gt;N = Nodes&lt;/span&gt;&lt;/div&gt;&lt;div style=&quot;&quot;&gt;&lt;font style=&quot;font-size: 21px;&quot;&gt;&lt;br&gt;&lt;/font&gt;&lt;/div&gt;&lt;div style=&quot;&quot;&gt;&lt;font style=&quot;font-size: 21px;&quot;&gt;Cyclomatic Complexity (CC) = E - N +2&lt;/font&gt;&lt;/div&gt;&lt;div style=&quot;&quot;&gt;&lt;font style=&quot;font-size: 21px;&quot;&gt;E = 10, N = 8&lt;/font&gt;&lt;/div&gt;&lt;div style=&quot;&quot;&gt;&lt;font style=&quot;font-size: 21px;&quot;&gt;CC = 10 - 8 + 2&lt;/font&gt;&lt;/div&gt;&lt;div style=&quot;&quot;&gt;&lt;font style=&quot;font-size: 21px;&quot;&gt;&lt;br&gt;&lt;/font&gt;&lt;/div&gt;&lt;div style=&quot;&quot;&gt;&lt;font style=&quot;font-size: 21px;&quot;&gt;CC = 4&lt;/font&gt;&lt;/div&gt;&lt;/div&gt;" style="rounded=1;whiteSpace=wrap;html=1;align=center;" parent="1" vertex="1">
          <mxGeometry x="95" y="930" width="440" height="231.5" as="geometry" />
        </mxCell>
        <mxCell id="b-FuEQzht5JCh_GCsAq7-37" value="if (distance &amp;lt;= 0)" style="text;html=1;align=center;verticalAlign=middle;resizable=0;points=[];autosize=1;strokeColor=none;fillColor=none;" parent="1" vertex="1">
          <mxGeometry x="25" y="395" width="110" height="30" as="geometry" />
        </mxCell>
        <mxCell id="b-FuEQzht5JCh_GCsAq7-38" value="false" style="text;html=1;align=center;verticalAlign=middle;resizable=0;points=[];autosize=1;strokeColor=none;fillColor=none;" parent="1" vertex="1">
          <mxGeometry x="290" y="378" width="50" height="30" as="geometry" />
        </mxCell>
        <mxCell id="b-FuEQzht5JCh_GCsAq7-39" value="True" style="text;html=1;align=center;verticalAlign=middle;resizable=0;points=[];autosize=1;strokeColor=none;fillColor=none;" parent="1" vertex="1">
          <mxGeometry x="170" y="470" width="50" height="30" as="geometry" />
        </mxCell>
        <mxCell id="b-FuEQzht5JCh_GCsAq7-40" value="Throw Exception" style="text;html=1;align=center;verticalAlign=middle;resizable=0;points=[];autosize=1;strokeColor=none;fillColor=none;" parent="1" vertex="1">
          <mxGeometry x="25" y="536" width="110" height="30" as="geometry" />
        </mxCell>
        <mxCell id="b-FuEQzht5JCh_GCsAq7-41" value="Set state" style="text;html=1;align=center;verticalAlign=middle;resizable=0;points=[];autosize=1;strokeColor=none;fillColor=none;" parent="1" vertex="1">
          <mxGeometry x="417" y="340" width="70" height="30" as="geometry" />
        </mxCell>
        <mxCell id="b-FuEQzht5JCh_GCsAq7-42" value="if (Saturday)" style="text;html=1;align=center;verticalAlign=middle;resizable=0;points=[];autosize=1;strokeColor=none;fillColor=none;" parent="1" vertex="1">
          <mxGeometry x="490" y="535" width="90" height="30" as="geometry" />
        </mxCell>
        <mxCell id="b-FuEQzht5JCh_GCsAq7-43" value="false" style="text;html=1;align=center;verticalAlign=middle;resizable=0;points=[];autosize=1;strokeColor=none;fillColor=none;" parent="1" vertex="1">
          <mxGeometry x="450" y="600" width="50" height="30" as="geometry" />
        </mxCell>
        <mxCell id="b-FuEQzht5JCh_GCsAq7-44" value="True" style="text;html=1;align=center;verticalAlign=middle;resizable=0;points=[];autosize=1;strokeColor=none;fillColor=none;" parent="1" vertex="1">
          <mxGeometry x="340" y="591" width="50" height="30" as="geometry" />
        </mxCell>
        <mxCell id="b-FuEQzht5JCh_GCsAq7-45" value="Set state" style="text;html=1;align=center;verticalAlign=middle;resizable=0;points=[];autosize=1;strokeColor=none;fillColor=none;" parent="1" vertex="1">
          <mxGeometry x="200" y="676" width="70" height="30" as="geometry" />
        </mxCell>
        <mxCell id="b-FuEQzht5JCh_GCsAq7-46" value="if (Sunday)" style="text;html=1;align=center;verticalAlign=middle;resizable=0;points=[];autosize=1;strokeColor=none;fillColor=none;" parent="1" vertex="1">
          <mxGeometry x="492" y="676" width="80" height="30" as="geometry" />
        </mxCell>
        <mxCell id="b-FuEQzht5JCh_GCsAq7-47" value="Set state" style="text;html=1;align=center;verticalAlign=middle;resizable=0;points=[];autosize=1;strokeColor=none;fillColor=none;" parent="1" vertex="1">
          <mxGeometry x="487" y="816" width="70" height="30" as="geometry" />
        </mxCell>
        <mxCell id="b-FuEQzht5JCh_GCsAq7-48" value="false" style="text;html=1;align=center;verticalAlign=middle;resizable=0;points=[];autosize=1;strokeColor=none;fillColor=none;" parent="1" vertex="1">
          <mxGeometry x="309" y="730" width="50" height="30" as="geometry" />
        </mxCell>
        <mxCell id="b-FuEQzht5JCh_GCsAq7-49" value="True" style="text;html=1;align=center;verticalAlign=middle;resizable=0;points=[];autosize=1;strokeColor=none;fillColor=none;" parent="1" vertex="1">
          <mxGeometry x="450" y="750" width="50" height="30" as="geometry" />
        </mxCell>
        <mxCell id="b-FuEQzht5JCh_GCsAq7-50" value="" style="shape=image;verticalLabelPosition=bottom;labelBackgroundColor=default;verticalAlign=top;aspect=fixed;imageAspect=0;image=data:image/png,iVBORw0KGgoAAAANSUhEUgAAAZ0AAAEXCAYAAAB29JkcAAAAAXNSR0IArs4c6QAAAARnQU1BAACxjwv8YQUAAAAJcEhZcwAADsMAAA7DAcdvqGQAADpkSURBVHhe7Z1xaCRZft9/42OGHLRzTCsGJRd1vInkkJX/UGOYyZCRBLsyUR8bVjDug6BdfCMca4d41wFJHNnj4jXHTTgkkXjX9mznD8lmV4RsW6C1l+sJpztHaGA9CqEFifYPS+d1WjgIHPVwpMFkho3zfr/3XtWr6qqeVqtVXZK+n6FG3VVd1VXvVb3v+/1+r9/vyssvv/zXpHj27BldvXqVX4KUgDpJH6iT9IE6ST9uHf2U/A8AAAAkAEQHAABAYlwZGxsT99rW1pasAAAAALrN+Pi4/PViOpubmzQxMSErAQAAgG7h6gvcawAAABIDogMAACAxIDoAAAASA6IDAAAgMSA6AAAAEgOiAwAAIDEgOgAAABIDogMAACAxIDoAAAASA6IDAAAgMSA6AAAAEgNzr4F08HOv0pvfeJlu/sNBymau0bUvmfWKp3/VoPqP9+jxf1ml9zYOzNpu0U8v3ZujmReP6LU3l806Zo5WNguUM+8i+eIpPX36lI7+e4U+/J0S/egvzPq2KdLixizlM/pdY7dEU/Nl/QaACwTmXgMpop9e/eYKbbz3Jr1640Xq/0pQcJhrX85Q/8/fpFd/7X3a+N036aWvmg2npP+lWVr8cIXevpOnftPwn4gvqXNV55a7UaS3312kYpfOC4CLDEQH9JB+Kn7vXXrzF3OUCQlNHBllEc3/5hzlzfvTMP16kfL918y7U/KVPN39N7PqigAArYDogJ7R/4236e4vZM07xRcNqj1ao/e+/YaY4hMTr9HCd1ap8j+O6Kn5CHPtZ2/SL02aNwlRe8jn4y+vzb9Dqz+oUcNsZ679g5s0fSJrp0wLU/4x4VoDlwHEdECPKNB3P5qjm1Zzntao8p0ZWv7UvA9xc36FfuOlLNX/dI8eP/5DqvzHxxSM7nBs5k16bSJPua8Y6+WLp9T4ywPa+YN36b4bC1LH2pyMi9ao85hQ5xGK6bDozCyZNw6F+x/R3A17EQ2q/ocpWvhIvbyzSBv38qS9duqY367S0PyrNPgV9ZbP6389otW7+3T7uTGdQXr1m/M0fSsnsS6B96/XaPc/f0Tv/96P6Eiv9fnqSzT7L1+jwoiyIK0h97RBR3+6Q+XfvU8f/6lZB0BCIKYDes+dl2jYMXIOvv92rOAwj5dm6Gtfm6LX/tW36L0mwblJs++9T2/fuekLDvOla5Tpf5Fe+rV36aPvFM/E9VWpu7ZOhvoitSxLo1ZwGD4v9eTVzNtYvlqkxY/epzd/UQ+u8OD9f2aQbr/2Nr37vdB13Zqld999m4o3HMFhrnFc7CV6899/RN/9OpyAoHdAdEBPeGnk7xkrQPFXn9Hj327qr7fNzW++ScV/1GokwDXK3rpL79zrfmM7/XfdYzbo+HPzMkCGMlZwGGWpfPYnK1Q1b6PJ09xv3qW8I8xRZH/hLr39DXsON+ntN4r0ovtdYa5l6eY33qFZDHoAPQKiA3pC35edbvhP6rRrXp6caZq+7Tf8T//iEZXmXxNT/o2lj+mzn5gNSngG//GMHoCgrCbeXjmUDZrDiqybENfa8xm89Srdvf8hTf+8cx1fHFHtT8zrJhr02fp9eo2/459+jd568ByRnfwluvmz/rH963qDljc+c2JJ1+jF8Wlt7bw2Tbc9MXlKR49KtPDLfE2hfa4N0ugvd2MoBgAn56eePXtGvACQJLk+xzJ59n8iev0cU9kUX3DUsrFU1B/7+gjlvqxfEh3Ro7ffofKubtAPHr5Hb/2nqt/YfnWQXjIvT0puMvj973/nTZq+0a+afJ/G7g/pvbjf6vz4h3T/QUT8JYaX/skQeUbOFwdU8a5Lvf7t+/TDH3O8qkbVH6zR8m+tyXGLIzn/fJRIzb9TpqqcD+/zFq3t+lLV//c7LQkAOsNqzU9dvXqVeAEgSWrHTizkb/bTq+blicn1+W46Hkzw+0Fx2PxVG8xnstR/x7zsMk//vEL/9pvxo8+O/qzctuAw+b/t+NWOalQOiNkRvTf7NZr65zO08L1VqhiRDQj5V1+iD91yUMvsiLP9b/WTkW0AEsFqDdxroCcc/MQRna/00eB5jDE81dbG441leutXlumxWR3F0y9OIjkK93dL/+//nkiwAEgzEB3QE6r/9X9S3bxWfXTKz9w0ry3LNCMxFruUqOroVCRfHFA5sE94maKFdfPZExL+nY4sX9PWxrd+uxIaTRcmboBBC74wf5mrP33yH8P+uNx8vu4ytUD4VRDoBRAd0Bse/iF95nTf+2+9Se/8sw5Gl/3vhv/D0S/laNgbyXW+OXDdjz/T7wwQ0OS//SFtbnxEK0tv092v5WUgQb3h/IT27wzTXYxQAykEogN6xGN6/w+dIP811bD++vv04dIcTd8aNCv7KT8+TW/ef58++iP/R5QBfm+Pap5VcI1e/PoSvfN13Qj3jxTpnd//vh/X+Oi7VNAfbOZv/DSxrTV46ybZb+8lH//xnm8JfmmQCvffoeKIXBXlv/4Ozd1SrzNZyo28RNO/PisxsdXPnF/+fPlFKob2+fD7fnzno/uxJQHAmQLRAT3j6KNlWvu07kxxk1FCUaC733nfNI4f0uK379KrNwYp641QYxp09GPr0CrRxzu+o07E61cXJYj+4dKsshDseK6ndPDH71HFvBNcF9bP3Kbvqn3e/86/ptkzGmxwIh7+AT3+c79krn31Ns0uKeuGy+RXb5M7ZRyPmivxiwcf02O3KOL2eXpAP/ydQEkAkBgQHdBDjqj87bdo6Y8OqOEKQAsah4+pfP8NeuOBP8i68u1lqjgNdBT1/7ZK74R+G/OjP0tzeL5Ky7+xSlVHRKLg3++svmujMxX61r+rUK1VUXxRp+rvvUOlE6dhAKA7QHRAjzmiH/3WGzQ1c5/WflCl2l826KkrQJyz5idH9NnOx/LjyKm736LSj8Ji8ZiWf2WG7q8/ptpP1Oed/Z/+pEaP1+/TW99sHrJcvf8elXdq5IZCnv6kTk/aFMAz5y/KtPD1N+i9HxwE4zVSJjWqfv89euuX36GPXQH5dJlm/sV9fV1/FdxHBPt7b9HCR2kWW3DRwYSfAAAAzhRXX2DpAAAASAyIDgAAgMSA6AAAAEgMiA4AAIDEgOgAAABIDIgOAACAxIDoAAAASAyIDgAAgMSA6AAAAEgMiA4AAIDEgOgAAABIjCtjY2My99rW1pasAAAAALrN+Pi4/MWEnwAAAM4UTPgJAACgJ0B0AAAAJAZEBwAAQGJAdAAAACQGRAf0ljuLtLG5SRtLRbPCMkcrmxu0eMe8PRG87yatzJu3HVBc2pDgp12azw8A0AkQHZAKMiMFJRXpYG51k2ZH6lSZmJARNxMTFaqPzEJ4AOgCEB2QAhrUaOSosJoC2VGW1+hAg6oPZmjZrCL1auZhLVXCCMB5BaIDUsH+oyo1BgotXWIBl9fGIgXsjvkVf9vqsFnpw9aLvz1eOoq3hijT2KeddbPCsjSjLB5XiLQLzx7TO29xFwbdgvLd3nfG7Kfgz22sroi70bs+4360nw+ee5EWN+y2DVpZVeXjlktg305dlQB0F4gOSAefL9DaboNyt0NiYlGi4ru8SlSlPM26DflkjmoPtTusdJylnNnCsFgVrlepZPe9Xoh1leX6MkRPjqhs3kfDjX2Bsrsl+b4JZQXlJk2jvr5D+40MDd2yx5+j4QGi2h7LVWi/B1XK2v0MGfXZbd42taDOQX3+9TzVzXXx5xsDo97ni0vTqhTsdW0TDahz91Blcs/Z92Gd8vdW1FoAegtEB6SG8vyaiMl0hCDMDSsZOdwzlkaZFh7VVCM7rBvR+WElMjXaW5KN6jjb6p2lSDcGM1R7xI04o/fNDN5QWzrkzg0ayjRo/1MjTUsVqnpCU6adg4Z//Dv9lG1UqcLnJvvVaHve7Le+QNuHrkApvGtk1LlOTdCMuS56oY98WdHX1TjYMde1TBUl2h5cJvZ7GTnHHA2fYnAFAN0AogNShBGEkemQK6hI/deJGse+lLgU+7O80RGaGh177W+O2HjJTVo3k1qUVUSZvoA1ZKnxjtf7WwuSNP51Ogq74AwiepkhuqGugd11ZIVB9stRwXN5bVJBWTaZvqgz0QTcgrez5MuKvq76kRGwEFImGWUNet81S3n1+Wx/x1ILQFeA6IB0sTRDFdX7z7/ixmXKdPQkvnEuH9VDIqIbZI0WIOt68xc3PuNT/nSfGkYwArixms+PVeOfpf7wZzyWaU8smDlljZBvEcl+NWdUnFnuRp2JwhvUYD73wb7ZwOjrihMRKRNl6WjXm79MWSsLgB4B0QGpY/luhWoDuYAlsrznuNOUHbJ4W221rqilPdUE52jUuuXE3WbR7i43ViTWQ3gggsW4vILxDx1byRxu0wJbN+G4zXxBWRGOu03B58uj3fJPzD6M7OecJ8ddlBXSeih2hvpe0K/mXlHnoF8qQm48dazCiL9VykRZOoXAAIfT/XYJgG4A0QEpJBSfYJQFVNrNGtfUrA6gexbCMs08qBKNzBo3lLIDnN3L81NUeeK7mgoDytqQQH00y3cnnO/S3zd0UHIsEo616N/uyHYZxDDliwsjQqjOQwYQWEL7bRYod1iJtz5EAH3X4PCeEmNHhGwMTF/XMB0HykyXSda6Fe/liXZLfnwIgB6B1AYAXBB4lN5s33a8uw6AHuHqCywdAM4p8rsex1XH7rW4wRYApAWIDgDnlOVPHJfi81x1AKQEuNcAAACcKXCvAQAA6AlXxsbGxNLZ2tqSFQAAAEC3GR8fl79wr6UY1En6QJ2kD9RJ+oF7DQAAQE+A6AAAAEgMiA4AAIDEgOgAAABIDAwkSDHNdcITRBYCE2EKh5XuTH3C2TcniSoRMzDzr98LdPrvkeMMmDcePJNyaO6ylNJ2nfAMz+78bi3KFpyOtuuECdfLOUGmOBrcjzz36GdK0a12oQXttgsYSHDOCU7TzzMyx2fCTCX8MHjnz5NrEuXvne90ysE6MZlN42aybgE/xK3SaYP2aU5noZaeCY6eUfzMZvkOPVM6y2zr9O/dpt17F6Jz7uHcLa0TgXUDnnn5rHpNMgu05NC5KI2tnk06kFpgaUY1BrByQELYGcqH0/dMQXTOPW4OfovuVbFJy0u4tyM9Ers9tmfC+fzVdtNb93sxev3G6orkZ9HHCeXeZ1eSd/yVtnp4TRk73WOoxbPkeH3AguBrTaOVFEqyJtdjysnktrHXZsuGXSjiJlE9VK9eQp/166uNegjsGywj/i7vmB1YZOcd/Qw45SX1o8tI3+uL+v6PKle55+y25nu7uWy5rrS7j9NUeJ9vUT+2fu22Qp9ZfSpanHfgeXPORc7RPbdoiy3y3o0BonMOCaRe3ixQNpAnRd/gvE7M7Ic19Xn/ppGb47rNKBnnmuNjmBwyMe6IjLrBtuUYJcm9X/BuNHVTSn4Z3jZBpeNstG89RDD7Jx8j62fMVNfACdHkGyQ5mZPZkxO2NfZpJ3XxoLhsp6psX89T3bp+JOeNbtS0xadeeL745s82BkYDjVPLerjn7Puw7iemUw3M7Ejdy2AquYae01CcR4LPiV5sY8mWe+XQlpe9Z5244kCe+h6Z8uHPecIcer6k/pxGObJsc9ryVZv5udDPaov6URSXpnXOKDnOtjofJ0FfOyixGA10Rludd/h5U+fy+sk6Is33bjwQnXNIOH6wPzjr9Ixv0JCbxXKpohojm+WySDcGM9SwOftJJ0vzs08yWRo1gtNqxuLGbsW4inTj6iFZO2u0Z0SwPL8tD9vJWKaZCb8BkHz/HjYVtD7jueGccz3nBy+T6foCTcW63dhNZxspxQt9TuZQTbv14Lr3pMy8/VSJfsJiZrOyXhyiYjpuEjudoVb1zM0M3YEEd40qVcx7KR/b0ZHnq0bb9tkwmWbd+9HLaKuIdUtLZ8n/Dv2c5mhYRDH6OW2JXIcjsOGkfc85b9V98d3bfK+cYewLonPuUQ3TIyeVszRMdTqK7PnnqE+1WvWjVrcTN2tKiKxlcUJEIBrHJxaa4H7cK/MfoOlBWekhqaBFKIvUfz2YJjo98LnxJYVLgoXEDDSwDUQL91bAFXo7q2qmPeLrQZ9XxkuJoBbVQGVUZ6PfsaAuB7Yxr1ElLAxPjvxGd/1IPVEGeb6U5WPLTi3sVtIWbVydNyP1k3HuAc6Gqx497Y5tfk7FE9AKZyBByVyTJzBMy/PmTp4VYLP9DC1fiM5F4/Nj1TDFNSChOEMk6madYlPZddW0T9BN1i66Z+c96PMF9QCqhsA8RFOPQg+cdbHNq94bpdG1ppCeZZzAawtGNxJ6wMF01OhDcZHwcHLz2Q/2zYbnE18P2iJqWDeLt5yPIetdRZXv9Igqi4Bb0uDGF+/0qyfKIM+Xf296i4hWnEu1GakfHr4dOo72LjQ/p0FrvzXa1eW6BBUtz5th4THrznjkG0Tn3KOsgtvqJrcm/foO7XvuNIU04NYaKNPOgetOM9kmI9xT1vVw4huPBUE1ddpNoM5uafS5AiT+a3WO1U/c3qYVTnN9AbSLLT+peuhujzQ1qHN+XZ2b6z7xmAsFYnUDE299ZqjvBf1q7hW2SNokVA9uQFgsRceS1YHvcLD8oqPriHbXaIrjLeF73YkbSrnbuKE8XzkadTK2cn3auCiXred1UEjZRlmy0nFyRjdK/dj7wjynXh2ZTtkJkOfX7cy0Om/n3hDEsmvQ8ef2tduesNv2dEB0ziHBAKkyyzng6PVY9HDdunWfhAKk0gvi4Kbsq33Z0bEb7XrImSB3+6gekwxe0Oc3rSyRJmdDyP+sA69OT9vEofL3ePs00SPV8wpZb/JwK4Kj9npHU508qcT4xVX5SBA3+Fnre9eNliofbqjssFfz2eE91ZA4ItSa0PdI0NqU8dIMlXaznqtlVvX2qw8u3nDuqIEEWlzZfaufmzW59+096zS8h3Xqk/uP3VDKQvDqMvR8hZ+hprJV97bsq3/awOekBaq5ftwYjGetyHFmqe/J8112QUy8Vp2nFbLY8+a4ogxkMOcig5PWzPPoH0e2DR+rZ5PXNxO4d826KDAjQYq5GHXCPapROu72jAPcO7vXR9sJ//YFz0n66HadcBytG7NvAB+3jmDpgO4ipro79JPda3EDGzqneGuIMs4oIQDA+QCiA7qLuIT8UTLdd92wa8S4LdATBeDcAfdaikGdpA/USfpAnaQft45g6QAAAEiMK2NjY2LpbG1tyQoAAACg24yPj8tfuNdSDOokfaBO0gfqJP3AvQYAAKAnQHQAAAAkBkQHAABAYkB0AAAAJEas6ASmVA8vZzjttUb/APDEk00C0BP05In6+bhsE2emEbc+Qstz5gVLDDeT7CUjVnQk+dCEXryMcOZ9x3MShWczjcRMxneySVUB6Blzq3ryRP2sdJYSAnSfqCRuZ5mcrDVaCNGRTpt7TUSJZ92tNc9MDEAqmaNhJy3wRc3CCbqMk8n1stG56IhAWLM1aL0EXHOeOauUXjIU8pT1cdbOEW1zwqq7e+Y9AClHEnyZ3CMelzEL5/lCt1GOe0vcXX67pHMMhdswTaB9c61a4zJbdPbVlg17b5Q1rF5xagNZF3avxbanOtSwsbribD/fbrkORUcLSN2ar5KLwRSEKszCdT8jHudu0YmEdP6IhvpXjZvmfn2Zlrs8GzEAZ48zi7ab2hj0lKh8Ota9xeED3xWq2jM375Rqw3SOJ78NmzXiwmLkt28lql4veAncNDnK922bdtHm6NG5bNh7wy4/mzPHJ9ielnbJb08NGWVNb9vvjMp0eo7oTHQ4e5ybFVGSbjlZCp2MeFy50UnCAADg7IiK6bgNvs2OaxOa2W1zw04mXoXEtyWOrTN41h45Cd0e1ZxMvIyTAdckI/SybsYh2ThrtOclcNtW75z2VNHYrZjz0SmxzzMdiY7k61bCorNP8qID/5LTm32VTuZIt3cBTkfA5L+kI1/SieNOc/Ppg5Sjs2IqeXLSZBSp/7pq5I+joso56lPtXMCCUhYSZfrEdaZxc0e1JxDSnjaOL00cuyPRKR/VVSH5LjS7uClb7bpSRymPQRScwtYv78sZhEwdke607ietA2fAnUWaHlFNWcBdpYUi0+fLiE+NjpVGNVtQ7rPoxvO0gD0PaU8DwnWx6cy9trRHNceFZoNgbNFIb9wJvGmBujwqDi4bnPs+Q/lXdKM190oeGU3PBUVafD1PtLtGUxxvGSj48R7J9e+PQPTbtDLtHKhO9G2/fZNBBYGBBo47bb5A+UyD9j99TniB21PHnaaz7dY8d9tFo8OBBHpQQNaamfe48kriE+XeuATePPMzS9UPjA90fYf2Gzx6DS43cHHwYwObVBhwXTWgl0QNJNBuafNbQKrSmnhnVHvmBf3V26UZKu1mney3daqY3/eE2zep78Bvf2pU75vV3+UOTpDOiT6n4MADJtiedj/bbrpAaoMUgzpJH6iT9JGaOuFh0JNEFbi+m3DrqENLBwAAADg5EB0AAACJAdEBAIBucImntjkJEB0AAACJcWVsbEwGEmxtbdH4+LisBOkAdZI+UCfpA3WSftw6wui1FIM6SR+ok/SBOkk/GL0GAACgJ0B0AAAAJAZEBwAAQGJAdAAAACRGrOgEsuOFl7NKIBTInneG33Ou0ZkE3fro3Tx2yPseQO7f5hnV3ZQUzfNugbNB35vRz0jzMxRoa9x2KJQ1FJyeWNGRxEUTeqkcqhWHFe+9TmjUAVKZcamqQ9lIJ/QkinhIXcxEhU+culDlRJPtN/zSmYCYdx++tyUdewi1nqfPr3Ia9gdVopHpmPsfdA9+TgqU3S3pZ8SdzFPgvDicwdg+Q2px8uno2ad53xJVyWY+Bt0iRe61ZZpRle9n9tOzskbntbis6CRStT1X9HUiqtwwhKRXiCXDHabD5gQexVtDlGns0w7PNLy+QNuHbWSSBKdEPyf1IzP3s6QOyFDfC/qtTrQXk/Pozg0a8tIRRGUGBaelc9FxTdCQ9RJwzXnmqbZkMupf/l6ctQNao5NIhQVGkru51megbtRiLBtuHAsD6gVPw8/rmizPoLuM63FjdUUfy9Yjz6TrHXdYPucTdltYV5Ne71pj0lBfFIvraFsSGs7smfcOOW79nhw5U9+jI3X26OdEMhkzoXTQ9EKf6gjE5PjibWFBukQJ1pKgQ9EJucIe1pWQmAZGNUqF635WUc49oc1TnTOiwTnEH9gcEy1QDeKoaiCDvfrLjup5faDK0ORu4aXZ/ajdA17dcJkPjIqwSC4Q6ypt00WaUXWwzceRnCGq3iVHiD526TgbeBiLS9OO669E1UaORuX8TPIrTyxNrvkLUrflpeWAqIRxUx/XuDUEZ4x6TqYmaNvmtbl9rNojf0605nT7oTicK0ifH6sWC3STzkSHew6NKlVsz2GpIg2MzXzHFWqzinJsyEtj3TbGKlKNo+9uA8L6Ak1Jo65TgWdG9IPlWxH6gfPKTXpup8DNghnqMZbntwO9xaDFpV0clvKn+0r8TDZGcWE4PU8Auoq22EePTUznA6Jpx6IX69NJt185zFEBAwYSoyPRae4pzFJe1aOYszzTqgTu7Lb2g9wavmEKlDtBb/yyIo28EZ/cpN9bC7g3b2e71lOTeg+4JbQbw8N1vW2OUtbdJlljTceEhfASpXR23WnS4IGzxXSOtm1n18TSbEpxGSTlZPtc/qRKjcwQ3bBuZteddtpOG2iiI9EpH9UDPQW7eBaNTPGt14UbxNZowZFRJxCcZrhRj+iRSX1YxC3pjMz5YN9sOD3yPQH/tmvNFGnxdo4adsTQxBoFv9l3sc0NqybhkrhNo9xprrsNpAUTx4lyp8XFf0BHdOZe49EgjgvNBq7ZopEAsdMwaoFqp9I42KwtnJO74y4JptxnAwF43dgH3GCqb2ZH6sy9EjGM17J+pB41ZzSV9BBbIKOAbJxGEfF5r1c/XxDr10W72ApUUKJ4/LlZecHR1zyqXTumQ6BHRoEzI3yfBuLDelCLHwvVMVDP8jYWud7XdKQOdlrG7MDJ6HAggR4UkLUutHt6XDvHESRY/cRxvU1mqfqBMWWlQnn0WoTLTfz86q8TJJcFvlYHHlZeoup1t4xmaejAsQzFlaBsEFM3w3sV9QD6IrS8p+Sfy1jKVQ+3tnGhzeFjqrb0xel6J/v52+pB9j6vh5d69Te8J4MWAiO1pP7VXzuE+DKg6mNtl+Se18/J2vMH0YBTErpPzaAnHefkmGeJ9gfNNg4NUJVKnmdFD9bR++pta+gEdxWkNkgxF7FOON7EAd7zas3iOUkfqJP049ZRh5YOAJ0wR8NwLwFwqYHogGSQkW08SATuJQAuMxAdkAxmRCMGiQBwuYHoAAAASIwrY2NjMpBga2uLxsfHZSVIB6iT9IE6SR+ok/Tj1hFGr6UY1En6QJ2kD9RJ+sHoNQAAAD0BogMAACAxIDoAAAASA6IDAAAgMWJFJzA9fng5s4yPOg+G/Z7mBGXATljo1sfJUkecBF0fZ3f8C4ZMfNs8o7pMgmvqCvd0wsTUCSOZcUP14daVXoL7uu0inovOiBUdyTkxoRcv26R533HaAbkB4lJVc2Nq0hrwd5gJ+1CxLlxGs052Tl4qRJN4AHoO39uceNC89VDrp0dIp5qQe3o65v4HXSeuThQsHpK6PQTnO/LTc/DiZxyVrMgDNarweskZ1m7KFuCSIveaznjp/WLdzEjs5TkHCp2/JpiLRs8U7aeCBkkjvWOeyfiwOYFH8dYQZeys2iaZmJdKApwZ8XWirffC9ZozQ7qlSP3XiepH0bNmcB4oL4VIOFsyaJvORUesFmtqBq2XgGvOS02gKlt6HZzaIM7acZBUB5gcMojO1BkWmECa6CZr0nWRadfcxuqKU3eh3pqb/XN12Ky0hF17Zl/5Tvc4+nOXxvo62paEhjN75r2DZAp9cqRTexgC6R7A2dCiTvYeKktlqkLH5r0Pd+ricj1pQQon4EOn+OR0KDpaQDhHhZigD+tKSEyjwybodSf/+JM8TYvfVOe4aKh/1QdTLSZ9NA0bC9ThNiaHDKBzfXAiNNvwdxIjyAwQbUv9lKS3VvBidKpeJ3NUM/VaOs4GkrQVl6Yd157eV5JduamoGekw1GhP8pdcfMpLywFRCeM2VFGZREH3ia+TZVqOuy/v9FNWOsV+xyrccfKtoDIdPTEvwYnoTHQ4Y2SjShVbeWFT08kqyrGhk03yqN1s0qhxsrIzG7RwTllfoCkj6JwK3CZgO4lV0ditGD916MExueWtWJTnt9U7n4BFZVx9Gj8VNSMupUAmUwDOAS/0KclxUr1L3KYNrww4ER2JTrE/K8LiZQflDHuqARJTk2cTlsqK7y20hxIfyUQ57LhtgIuIgBGfbgQ1pV4DqcW1O8/Ddb1tjlLW2abTMuu6YpdSMO50uXHdaeJuA+lEZkJ3vDDSmQ7G4Hx3mna3gZPTkeiUj+qqcfJdaHbxLBozjf1pG8TmRvCSw41+RPpuqY8uIMfJ9DkuNdeaKep88d7InjXaN1sEz8XGidouj2vteUS508JxAZButEst2p0WN+gAxNOZe21pj2qOC80OKmCLRkaNOA2jFqh2hMMEub0YxRwVRpSxe7CjqhsIptxnAy5HLQbeqJr1I6qT0zsTl1mb8PHVpyVOw0Ts6/Xa5wti3foYF9tkgXLoKHhoC3BUu2jUczKKzKmpJdx2SQzTiU0u79UoM1LQHWi5//1toH06HEigBwVkrQvtXp5I9YBnVAWwy4cHD3iut8ksVT9Y0MIhvWEdqGt2uXEsp0J1E6PgLJO5wwqSfgVQ5W5jXbZ8N2dp6EBZH16sRQ+htrGezeFjqrYdu9b1yr+Pkn1vq566t691d5rvHt6T32+5riNpYNVfdBQc1hdobZd0cFqeE2ROTSvcdpUOhry2a1Z+X+X8TmdpRt3zOSrwdhlw42wDbYPUBinm/NUJD88epeOWoxPPN3hO0gfqJP24ddShpQNABDKq0fwQEgAAIoDogK4gPwh2XakAABABRAd0BT1X38V1qwEAugNEBwAAQGJcGRsbk4EEW1tbsgIAAADoNuPj4/LXG7327Nkzunr1qqwE6QB1kj5QJ+kDdZJ+3DqCew0AAEBiQHQAAAAkBkQHAABAYkB0AAAAJAZEBwAAQGJAdAAAACQGRAcAAEBiQHQAAAAkBkQHAABAYkB0AAAAJAZEBwAAQGJAdAAAACQGRAcAAEBiQHQAAAAkBkQHAABAYkB0AAAAJAZEBwAAQGJAdAAAACQGRAcAAEBiXBkbG/trfrG1tSUrAAAAgG4zPj4uf6+8/PLLIjqbm5s0MTEhKwEAAIBu4eoL3GsAAAASA6IDAAAgMSA6AAAAEgOiAwAAIDEwkAD0iDla2SxQzrwL0KhSaWqByuatj96HHk7QzJJZ1U3uLNLGvTxlzNv48wAAnAQMJACpoaYEhG/GwNKLhn5+hTaV4NSd86k8ydPsxiIVzUcAAKcHogOAkpXF2zlq7JYCFtTy3QrVMnkqzJsVAIBTA/ca6BFtusrYApk0TrjDGtUG1GtvHyUWG7OUF39Yg2qHRLnr+75LLOAua1D1wRQtrMubIPK5IdqP2+5QXNqg2RHjgPPcb/o8hg5KNDVvbDQ5b6LKxAwtq7fR+ynku/uofpij3IC2/GaW3Otiat5xhJZlokp2dZMK6ljCYYUm7uo9ef2oOhapz2fgOgQJAvcaSA25yU25Id1lxbMslDCpxtW64ErH2UAMqLg0TXlSjae4w7ZVY+q10gq1r+sue1in/L0VtTaCF/qUMNXp6DmCw4397EhdCQAfs6S+OU+zq3zEMu0cNCgzeMNzxc0NqzM93NNCEdjPuO1kP0uOsscl2cbCIdf1RImF/Z5GjkaVEGmeVyYbVLhuy0Tte71AG96+RBklRtu8DYIDegREB/SUqJiOZ/nMD6sGtUZ75n15fpv76YYi3RjMUONgxzSey1TZbcgrgfdVvfmKPdZSRRrv4VO4ygJCor514RFbDcMiZOVP96mRGaIbd3hbkfqvK8vqE2NhqP0auxXPUln+pEoNs5+mQfuf+hJQnp/yrBMWpD5XS9sok9ojKyj6HF0x9M8fgN4A0QGppdifVe3xsdOo1ujY0xXdGNePovvrsm9GWRSeBaXdVdn+iGEBnx+rZj9L/SIYcbCQ8On4ZxNgfYG2DzM0dEsd/84NGqJ92hHLSe+XGZn1rTlx+bX4Pnafeec9SllHS5vLxEWXScB6ZDdcpk9tASAdQHRAaikf1UMNptvr1wIUKSIK2ZfjFiEryou5uKzv0H7DCEYAjq1sGvdUmY6e8OnEN9/Le9qqmLs1RORZYHo/HqTgnsfERFz8yB/UoD+3puTLp7lMXHSZNFuPTjwIgB4D0QHpZWlPNaNOPENcS5ZwHGWOCjZQz/C+7sgzDtirnr8fL3IxbihljbjbJbaSqdG2ESoWFetOs+IQcFfZ7xype/swIkYjBc+dxnGXzc2Y+JLBE7f5gjOgQGHKxLoJi0ujTWWSu+0P8+bBA5sY9g1SBEQH9JSogQR+g7xMMw+qRNY1dVv14h1XU3l+TQfzZZ9hOnZjOmbfrD3+vTxRaEh0gKUZmnA/r5bZwX1lKTlWgvpMaTdLBdk+qwcxeLEXZpn2DtWfcNwksJ867ghR9UGc9WFjRQV9HsN7VFHH9C0sdV0PleyY85xWdpDrauN4kAxUMN9VGKhRBYMGQIrAkGlwYZBhyX3bThD+MsBDz0fpuI3h3gD0CldfYOmAcwu7jvzhwNq9FhvovyiIm9B3zWn3WhvDvQFICRAdcG7hocee643ncTusRA8UuEjIKLlcm646ANIH3GsAAADOFLjXAAAA9IQrY2NjYulsbW3JCgAAAKDbjI+Py1+411IM6iR9oE7SB+ok/cC9BgAAoCdAdAAAACQGRAcAAEBiQHQAAAAkBgYSpJjmOtHZNv0JHg1OdshTEcp26SLZKOn03xPIaunRIqtnymi7TsKZOVuULTgdbdcJc04zpsoUTzwXYMS5Rz9Tim61Cy1ot13AQIJzTnDq+grVBoLZIVMPPwze+U9QaZcof2+DFlvms0k3wToxWUU7mN2ZH+LNQFZR0ClRCQJ7lzGVhTBulvMuEHqmePLahmoXzuz7Imj33oXonHv0zMat8rx0g+W76kY+o16TzIx8mKH8KxelsS3TwpTqDLipFXgWa1g5IClkuiSi3HD6nimIzrlnjoaVaV3bc5sz3atik5aXcG9HeiR2e2zPRCcws7lY/F6MSWy2uiL5afRxQrlh3MyX6nPt9PBqnH3ser9vGQSyZzoTe/L6gAXB15pGKymUZE6ux5STye1jr82WDbtQxE3CaQ1svYQ+69dXG/UQ2DdYRjqnj9l2CfPt6GfAKS+pH11G+l5f1Pd/VLnKPWe3Nd/bzWXLdaXdfZySwvt8i/qx9Wu3FfrM6lPR4rwDz5tzLnKO7rlFW2yR924MEJ1zSDAHTYGygTwx+gbndWJmS+4V/6aRm+O6zagZ55rjY8zS0IE6Row7IqNusG05RomqjRwVvBtN3ZSTOc+1UTrORvvWQwQzYvIxslR9oI/B1+AlQZNEaUN0wz4EnNitYVNDp4m4TKOqbF/PU926fiSHj27UtMWnXni++ObPNgZGA41Ty3q45+z7sE75e6bxVA3M7EidKrLfhM6/85yG4jwSlavJNpZsuVd44lS5bnvPOnHFgTz1PTLlw5/zhDn0fEn9OY1yZNnmtOWrNvNzoZ/VFvWjkASCnK9JjrOtzsfN5NcGSixGA53RVucdft7Uubx+so5I870bD0TnHBKOH+wPzjo94xs0lGnQ/qdGKpYqqjGyqZiLdGMwQw0vlfIyVXbd7JtMlkaN4LSasbmxWzGuIt24ekh2zxrtGREsz28Hkoy1xzLNOOmci/1Z/UJgd6KfWnpuOOdcz/nBy+65vkBTsW43dtPZRkrxQh+Fm55268F170mZefupEv2ExcxmRL04RMV03CR+y3d1p8vOUB5I8NeoUsW8l/KxHR15vvxsstqNFbwf3SR+sW5p6Sz536GfU5sRNvo5bYlchyOw4aSFzzlv1X3x3dt8r5xh7Auic+6xmSZNoyENU1x+lRz1qVarftTqduJmTQmRk175JIhANI5PLDTB/bhX5j9A04Oy0kPSP4tQFqn/uiOwqYLPjS8pXBIsJGaggW0gWri3Aq7Q21lVM+0RXw/6vDg1t3dc1UBlVGej37GgLge2Ma9RJSwMT478Rnf9SD1RBnm+/NQSvLBbSVu0cXXejNRPxrkHOBOtevS0O7b5ORVPQCucgQQlc01uyvTW582dPCvAZvsZWr4QnYvG58eqYYprQEJxhkjUzTrFprLrqmmfoJusXXTPznvQ5wvqAVQNgXmIph6FHjjrYptXvTdKo2tNIT3LOIHXFoxuJPSAg+mo0YfiIuHh5OazH+ybDc8nvh60RdSwbhZvuYSZR1X5To+osgi4JQ1ufPFOv3qiDPJ8+femt4hoxblUm5H64eHboeNo70Lzcxq09lujXV2uS1DR8rwZFh6z7oxHvkF0zj3KKritbnJr0q/v0L7nTlNIA26tgTLtHLjuNJNtM8I9ZV0PJ77xWBBUU6fdBOrsJLNla8R/rc6x+onb27TCaa4vgHax5SdVD93tkaYGdc6vq3Nz3Scec6FArG5g4q3PDPW9oF/NvcIWSZuE6sENCIul6FiyOvAdDpZfdHQd0e4aTXG8JXyvO3FDKXcbN5TnK0ejTsZark8bF+Wy9bwOCinbKEtWOk7O6EapH3tfmOfUqyPTKTsB8vy6nZlW5+3cG4JYdg06/ty+dtsTdtueDojOOSQYIFVmOQccvR6LHq5bt+6TUIBUekEc3JR9tS87OnajXQ85E+RuH9VjksEL+vymlSXS5GwI+Z914NXpaZs4VP4eb58meqR6XiHrTR5uRXDUXu9oqpMnlRi/uCofCeIGP2t977rRUuXDDZUd9mo+O7ynGhJHhFoT+h4JWpsyXpqh0m72wmcfjRpIoMWV3bf6uVmTe9/es07De1inPrn/2A2lLASvLkPPV/gZaipbdW/LvvqnDXxOWqCa68eNwXjWihxnlvqePN9lF8TEa9V5WiGLPW+OK8pABnMuMjhpzTyP/nFk2/CxejZ5fTOBe9esiwIzEqSYi1En3KMapeNuzzjAvbN7fbSd8G9f8Jykj27XCcfRujH7BvBx6wiWDuguYqq7Qz/ZvRY3sKFzireGKOOMEgIAnA8gOqC7iEvIHyXTfdcNu0aM2wI9UQDOHXCvpRjUSfpAnaQP1En6cesIlg4AAIDEuDI2NiaWztbWlqwAAAAAus34+Lj8hXstxaBO0gfqJH2gTtIP3GsAAAB6AkQHAABAYkB0AAAAJAZEBwAAQGLEik5gSvXwcobTXnu4mRaBQU/SF1kuNvPfc+Y96gz9g8zmZG8gQGg2BoubSRJlmBT6no0r95Z1YibflO1n8jxdbmJFR5IPTejFywhn3nc8J1F4NtNYVOM6edq5TC8qDZmK3Zs92CDJo0DvkLngImaBVut5+nxJT/CgSjQy3cb9D07L3KqZCFfaLD3RpTeLdMs6sbNPc+oHnfcoMu0E6JhUutd4vq5sI2YqU0D1Jw3KDbv9aZ3MrHaIMusF0mvmWZwPm2cCljnivGnxw9kawdkwR8Och+gDOzP0suSKsTM4t6yTQObdsiRIDGbWBaelc9FxTdCQ9RJwzXnmqbJepCfIU9a3sHa4FzK4T2vhxF3A43hvP5hemB8U2qe9Y/Pew7rj9OLmC5E6Wl1xtofqxK3fjQL1mdWaoOvCd/fp9e73SIOchDu2lxxtS496Zs+8d8hxCshQzp92knyBUyA5X+InmW1ZJ1GZd0+clBC0okPR0QJStznIJReDaXjmV6hw3c+Ix7lbtHmq80c01L9qi2nuOWFS/dHZ5ee+EHyuEzJ5idJUz40OdkJ5a1gAOC+GyRAZzhfCDGTp2GSlrHBStNdtB8F1Majtj9SD6viNJOka54uROi5JbnedHEonn/KtMJ18Ki05b86K8tJyy/vVTV9c44xt4OxpqB5Yi7hNyzpx03xLxk3QTToTHe5JuFkRJemWE2dwMuJxbCg6SVgELFjkJ7QCcejGXaez1Q17U+bJgJtAYRKjBVw7h9ue+AcevMh99UuGE0z5cT2dz91S/tSxwuQ4NdpDfYKkUW3QKK3pjpHEbZyYDugpHYmO5OtWlaqzT/IyS3nV8EgjuDRjetV2W9DdEo/qXd/OhlIWgzg4x7r4muMa9ig3Qbs07atzv3vYkXKycPzNrGdMWlzpgPBxkPMm4E4T1w5IgBpt286uzcDqxEFb1onrTpNnAXSTjkSHGzxSlo51odnFTdlq15XaTXksjadNUawWGb3GeVnaGe12CZEc60NUeCUmmZm4BYIpntumaV8eqGBeSucgRw3reptYo32zReO72HhE3UV3rT2PKHea69oBZ0CMS8yWe8s6idrXdbeBU9OZe00aPN+FZoPObNFI4NgZ264Fqo1K4zzdRqhkUdYS91YCufOBA+dcz1BuICZmIhaH406bLyhr1HGZtcLsm3/FdBWkQ6BfWryeohxXv7RoF1uBCgMNOv7crLyk6LIY1R0n9ZyMqjJpqw5A5xhrW8cZFaFyb1kngX1NB+tgp2XMDpyMDgcS6EEBWetCu6eDzhyLYX8/Dx7wXG+TWX/oom3MlDUD/+rpWd7TwhwdMynTwpT+fYK1HGsP2xVwvW9NCYeu3z6q82+1BD2MlOy24T35HVdgRJbUs/prh6VeZlRnam2XtAUvz8kaOlFnDt+/JdofNPe+DHpy7v2WdaL2/UDHgCRsQFVaazcmDdoCqQ1SzHmuEx6SPXpcan8QyTkBz0n6QJ2kH7eOOrR0AGiF/nEe3EgAgDAQHdBdZGQb/z4IbiQAQDMQHdBdzMjFi+ZWAwB0B4gOAACAxLgyNjYmAwm2trZkBQAAANBtxsfH5a83eu3Zs2d09epVWQnSAeokfaBO0gfqJP24dQT3GgAAgMSA6AAAAEgMiA4AAIDEgOgAAABIDIgOAACAxIDoAAAASAyIDgAAgMSA6AAAAEgMiA4AAIDEgOgAAABIDIgOAACAxIDoAAAASAyIDgAAgMSA6AAAAEgMiA4AAIDEgOgAAABIDIgOAACAxIDoAAAASAyIDgAAgMS4MjY29tf8YmtrS1YAAAAA3WZ8fFz+Xnn55ZdFdDY3N2liYkJWAgAAAN3C1Re41wAAACQGRAcAAEBiQHQAAAAkBkQHAABAYkB0QJeZo5XNTVqZN297zNzqpgQx7ZKW8zoT7izShrrGjaWiWWHhOtmgxTvmrcDrVtT/DrH7A9A9IDrgglKkxY1NKlyvUmliQkbOTDyoUnbygguPIjNSCIpJFHf6Kds4ppp5yxRvDREdqjWDN1TpAXA2QHTAxWS+QPlMjSpTC1Q2q2h9gdZ2G5S7vXiBG9UGNRo5Kqy2lh0RmIMdv2yUTBVGiPY/2aN6Jk+FCy7MoHdAdEDiBFxe4cbRuHj0dtclpC2XjaVFcd/J9o148Zgbzqle+x4tm/eW8vwUTbhCJG4m+32OFTS/ot677if7/fYbY/ZT8PVtrK7o67DnGLgutQSuWx9bb9ugldWN4LXFlkk0+4+q1BgotLDoinRjUH3uU78UaH6Yco192llfpr1Dotzwc20lADoCogMSpbi04bi8KlRTjWOgIb+Xp/pD7Q4r7RLl7wXjDpmRITp+wNtLVKU8zUb26IvUf131+Y9d51EU3NgXKLtb0u63hzXKTZpGfWmP1Dsatg33nRs0lGmYhjq0n7jtgmKQGSDa5m0icOrzr/vXxZ9vDIx6ny8uTasrsWWyTTSQ0RuEYJlMPKw3lUkTnz/PostRX6ZOR+vmrYJFumEsn+VP+PyGW38HAB0C0QEJwj3sjNe4qeaNKqpxzNgYAve2VVO/tyQblVWyHWz4mcNtWpDGskwLj5SonKZxDAiJYqlC1UaGhm7x2YR6/C/0UcZ+t+xXo+15s9/6Am0f2v0MAStLnevUBM2Y65JjmZdxZeIhFkiVKnZfOcdQmURQnl8TUZ6OGhTAxwyc3xwND7jXs0P7bXwHAJ0A0QEJwj1sovqRadxCFPuzbJ4EgtthAtbL58fkNM8OZTp6oqyNvpx5H4M0/sEev4vb42dLoLZnmmnZL0cFz+W1SQVl2bT6voBL8XbWOe82yiSjLDrvu2Yprz6f7Y+2YXy0KGdGppvccXxMtxyLS6PqLNzr0d9xsWNfoFdAdECC1OhYtbZxDWb5qM4tt2r+4gk07AGLIcjyXowV5MZqRLSy1B8XI/F6/NoSsBaY3q9GFXGHOcvdcATJcGeRRgcaVBW3oFo+2DcbmDbKRFk63gg8s0xZq6QVSzNUURZY/pVhs4IJx3O0pVWz7ju7sAswM0Q34soGgA6B6IAEKdPOgeNOU01/YcRxLYXiKLoH7jT2jCckRVq8HT1YQDBuqEJgsMEcrUzmqLFb0fuIqDhuMRnx5rjbzPnmJjl+Y/ZhjBiNhgYVtP59S4b6XtCv5l7JO2IZXSYeXCbuaDIzqKDdYd/LdzluxnaMgV2DxAMGnPeZUBkz4bIBoEtAdMCZkJu0rhqzmMafR49Vnlh3UYFyhxWn175MM+a3NLzP7Agp62AmICqNQ6JR2XdWB9/jrAt2L01NON+lv49Uj97/Pv5Mheojs3q7EqTawykTM9KUP93nQcjBkV7h/ZquI4TEfPwyGd5TQuCIkI2/6PMcpmM3phMqk817eaLdkh8fei6hGBFbh0+O1BVoRAAjhduIYTu/+QHgBCC1ATgn8IixWRo6KLXnWjrH8Ai/2b7teHcdAOcMV19g6QDQY+R3PY6rTlyOzx3uDcD5BKIDQI/hUXLUrqsOgHMO3GsAAADOFLjXAAAA9IQrY2NjYulsbW3JCgAAAKDbjI+Py1/Pvfbs2TO6evWqrATpAHWSPlAn6QN1kn7cOoJ7DQAAQEIQ/X+BLXJMpxLwDgAAAABJRU5ErkJggg==;" parent="1" vertex="1">
          <mxGeometry x="640" y="378" width="561.03" height="379" as="geometry" />
        </mxCell>
        <mxCell id="hvOdPJzpOSWR4C87Uo2s-1" value="&lt;font size=&quot;1&quot;&gt;&lt;b style=&quot;font-size: 30px;&quot;&gt;1&lt;/b&gt;&lt;/font&gt;" style="ellipse;whiteSpace=wrap;html=1;aspect=fixed;fillColor=#008a00;fontColor=#ffffff;strokeColor=#005700;" vertex="1" parent="1">
          <mxGeometry x="1660" y="360" width="80" height="80" as="geometry" />
        </mxCell>
        <mxCell id="hvOdPJzpOSWR4C87Uo2s-2" value="# 20" style="text;html=1;align=center;verticalAlign=middle;resizable=0;points=[];autosize=1;strokeColor=none;fillColor=none;fontColor=#FFFCFE;" vertex="1" parent="1">
          <mxGeometry x="1675" y="360" width="50" height="30" as="geometry" />
        </mxCell>
        <mxCell id="hvOdPJzpOSWR4C87Uo2s-3" value="&lt;b&gt;&lt;font style=&quot;font-size: 36px;&quot;&gt;Book Bus&lt;/font&gt;&lt;/b&gt;" style="text;html=1;align=center;verticalAlign=middle;whiteSpace=wrap;rounded=0;" vertex="1" parent="1">
          <mxGeometry x="1760" y="260" width="270" height="30" as="geometry" />
        </mxCell>
        <mxCell id="hvOdPJzpOSWR4C87Uo2s-4" value="&lt;font size=&quot;1&quot;&gt;&lt;b style=&quot;font-size: 30px;&quot;&gt;2&lt;/b&gt;&lt;/font&gt;" style="ellipse;whiteSpace=wrap;html=1;aspect=fixed;fillColor=#0050ef;fontColor=#ffffff;strokeColor=#001DBC;" vertex="1" parent="1">
          <mxGeometry x="1660" y="500" width="80" height="80" as="geometry" />
        </mxCell>
        <mxCell id="hvOdPJzpOSWR4C87Uo2s-5" value="# 22" style="text;html=1;align=center;verticalAlign=middle;resizable=0;points=[];autosize=1;strokeColor=none;fillColor=none;fontColor=#FFFCFE;" vertex="1" parent="1">
          <mxGeometry x="1675" y="500" width="50" height="30" as="geometry" />
        </mxCell>
        <mxCell id="hvOdPJzpOSWR4C87Uo2s-29" value="&lt;div style=&quot;&quot;&gt;&lt;br&gt;&lt;/div&gt;&lt;div&gt;&lt;div style=&quot;&quot;&gt;&lt;font style=&quot;font-size: 21px;&quot;&gt;E = Edges,&amp;nbsp;&lt;/font&gt;&lt;span style=&quot;font-size: 21px; background-color: initial;&quot;&gt;N = Nodes&lt;/span&gt;&lt;/div&gt;&lt;div style=&quot;&quot;&gt;&lt;font style=&quot;font-size: 21px;&quot;&gt;&lt;br&gt;&lt;/font&gt;&lt;/div&gt;&lt;div style=&quot;&quot;&gt;&lt;font style=&quot;font-size: 21px;&quot;&gt;Cyclomatic Complexity (CC) = E - N +2&lt;/font&gt;&lt;/div&gt;&lt;div style=&quot;&quot;&gt;&lt;font style=&quot;font-size: 21px;&quot;&gt;E = 10, N = 8&lt;/font&gt;&lt;/div&gt;&lt;div style=&quot;&quot;&gt;&lt;font style=&quot;font-size: 21px;&quot;&gt;CC = 10 - 8 + 2&lt;/font&gt;&lt;/div&gt;&lt;div style=&quot;&quot;&gt;&lt;font style=&quot;font-size: 21px;&quot;&gt;&lt;br&gt;&lt;/font&gt;&lt;/div&gt;&lt;div style=&quot;&quot;&gt;&lt;font style=&quot;font-size: 21px;&quot;&gt;CC = 4&lt;/font&gt;&lt;/div&gt;&lt;/div&gt;" style="rounded=1;whiteSpace=wrap;html=1;align=center;" vertex="1" parent="1">
          <mxGeometry x="1620" y="930" width="440" height="231.5" as="geometry" />
        </mxCell>
        <mxCell id="hvOdPJzpOSWR4C87Uo2s-44" value="&lt;font size=&quot;1&quot;&gt;&lt;b style=&quot;font-size: 30px;&quot;&gt;4&lt;/b&gt;&lt;/font&gt;" style="ellipse;whiteSpace=wrap;html=1;aspect=fixed;fillColor=#0050ef;fontColor=#ffffff;strokeColor=#001DBC;" vertex="1" parent="1">
          <mxGeometry x="1800" y="500" width="80" height="80" as="geometry" />
        </mxCell>
        <mxCell id="hvOdPJzpOSWR4C87Uo2s-45" value="# 24" style="text;html=1;align=center;verticalAlign=middle;resizable=0;points=[];autosize=1;strokeColor=none;fillColor=none;fontColor=#FFFCFE;" vertex="1" parent="1">
          <mxGeometry x="1815" y="500" width="50" height="30" as="geometry" />
        </mxCell>
        <mxCell id="hvOdPJzpOSWR4C87Uo2s-46" value="&lt;font size=&quot;1&quot;&gt;&lt;b style=&quot;font-size: 30px;&quot;&gt;3&lt;/b&gt;&lt;/font&gt;" style="ellipse;whiteSpace=wrap;html=1;aspect=fixed;fillColor=#0050ef;fontColor=#ffffff;strokeColor=#001DBC;" vertex="1" parent="1">
          <mxGeometry x="1660" y="640" width="80" height="80" as="geometry" />
        </mxCell>
        <mxCell id="hvOdPJzpOSWR4C87Uo2s-47" value="# 22" style="text;html=1;align=center;verticalAlign=middle;resizable=0;points=[];autosize=1;strokeColor=none;fillColor=none;fontColor=#FFFCFE;" vertex="1" parent="1">
          <mxGeometry x="1675" y="640" width="50" height="30" as="geometry" />
        </mxCell>
        <mxCell id="hvOdPJzpOSWR4C87Uo2s-48" value="&lt;font size=&quot;1&quot;&gt;&lt;b style=&quot;font-size: 30px;&quot;&gt;5&lt;/b&gt;&lt;/font&gt;" style="ellipse;whiteSpace=wrap;html=1;aspect=fixed;fillColor=#0050ef;fontColor=#ffffff;strokeColor=#001DBC;" vertex="1" parent="1">
          <mxGeometry x="1943" y="500" width="80" height="80" as="geometry" />
        </mxCell>
        <mxCell id="hvOdPJzpOSWR4C87Uo2s-49" value="# 26" style="text;html=1;align=center;verticalAlign=middle;resizable=0;points=[];autosize=1;strokeColor=none;fillColor=none;fontColor=#FFFCFE;" vertex="1" parent="1">
          <mxGeometry x="1958" y="500" width="50" height="30" as="geometry" />
        </mxCell>
        <mxCell id="hvOdPJzpOSWR4C87Uo2s-50" value="&lt;font size=&quot;1&quot;&gt;&lt;b style=&quot;font-size: 30px;&quot;&gt;6&lt;/b&gt;&lt;/font&gt;" style="ellipse;whiteSpace=wrap;html=1;aspect=fixed;fillColor=#0050ef;fontColor=#ffffff;strokeColor=#001DBC;" vertex="1" parent="1">
          <mxGeometry x="1943" y="640" width="80" height="80" as="geometry" />
        </mxCell>
        <mxCell id="hvOdPJzpOSWR4C87Uo2s-51" value="# 28" style="text;html=1;align=center;verticalAlign=middle;resizable=0;points=[];autosize=1;strokeColor=none;fillColor=none;fontColor=#FFFCFE;" vertex="1" parent="1">
          <mxGeometry x="1958" y="640" width="50" height="30" as="geometry" />
        </mxCell>
        <mxCell id="hvOdPJzpOSWR4C87Uo2s-52" value="&lt;font size=&quot;1&quot;&gt;&lt;b style=&quot;font-size: 30px;&quot;&gt;7&lt;/b&gt;&lt;/font&gt;" style="ellipse;whiteSpace=wrap;html=1;aspect=fixed;fillColor=#0050ef;fontColor=#ffffff;strokeColor=#001DBC;" vertex="1" parent="1">
          <mxGeometry x="1800" y="640" width="80" height="80" as="geometry" />
        </mxCell>
        <mxCell id="hvOdPJzpOSWR4C87Uo2s-53" value="# 32" style="text;html=1;align=center;verticalAlign=middle;resizable=0;points=[];autosize=1;strokeColor=none;fillColor=none;fontColor=#FFFCFE;" vertex="1" parent="1">
          <mxGeometry x="1815" y="640" width="50" height="30" as="geometry" />
        </mxCell>
        <mxCell id="hvOdPJzpOSWR4C87Uo2s-54" value="&lt;font size=&quot;1&quot;&gt;&lt;b style=&quot;font-size: 30px;&quot;&gt;8&lt;/b&gt;&lt;/font&gt;" style="ellipse;whiteSpace=wrap;html=1;aspect=fixed;fillColor=#f8cecc;strokeColor=#b85450;" vertex="1" parent="1">
          <mxGeometry x="1660" y="780" width="80" height="80" as="geometry" />
        </mxCell>
        <mxCell id="hvOdPJzpOSWR4C87Uo2s-55" value="&lt;font color=&quot;#1f1e1e&quot;&gt;# 34-40&lt;/font&gt;" style="text;html=1;align=center;verticalAlign=middle;resizable=0;points=[];autosize=1;strokeColor=none;fillColor=none;fontColor=#FFFCFE;" vertex="1" parent="1">
          <mxGeometry x="1670" y="780" width="60" height="30" as="geometry" />
        </mxCell>
        <mxCell id="hvOdPJzpOSWR4C87Uo2s-56" value="" style="endArrow=classic;html=1;rounded=0;" edge="1" parent="1" source="hvOdPJzpOSWR4C87Uo2s-1" target="hvOdPJzpOSWR4C87Uo2s-4">
          <mxGeometry width="50" height="50" relative="1" as="geometry">
            <mxPoint x="1850" y="440" as="sourcePoint" />
            <mxPoint x="1900" y="390" as="targetPoint" />
          </mxGeometry>
        </mxCell>
        <mxCell id="hvOdPJzpOSWR4C87Uo2s-57" value="" style="endArrow=classic;html=1;rounded=0;" edge="1" parent="1" source="hvOdPJzpOSWR4C87Uo2s-4" target="hvOdPJzpOSWR4C87Uo2s-44">
          <mxGeometry width="50" height="50" relative="1" as="geometry">
            <mxPoint x="1840" y="460" as="sourcePoint" />
            <mxPoint x="1890" y="410" as="targetPoint" />
          </mxGeometry>
        </mxCell>
        <mxCell id="hvOdPJzpOSWR4C87Uo2s-58" value="" style="endArrow=classic;html=1;rounded=0;" edge="1" parent="1" source="hvOdPJzpOSWR4C87Uo2s-44" target="hvOdPJzpOSWR4C87Uo2s-48">
          <mxGeometry width="50" height="50" relative="1" as="geometry">
            <mxPoint x="1920" y="510" as="sourcePoint" />
            <mxPoint x="1970" y="460" as="targetPoint" />
          </mxGeometry>
        </mxCell>
        <mxCell id="hvOdPJzpOSWR4C87Uo2s-59" value="" style="endArrow=classic;html=1;rounded=0;" edge="1" parent="1" source="hvOdPJzpOSWR4C87Uo2s-48" target="hvOdPJzpOSWR4C87Uo2s-50">
          <mxGeometry width="50" height="50" relative="1" as="geometry">
            <mxPoint x="2150" y="600" as="sourcePoint" />
            <mxPoint x="2200" y="550" as="targetPoint" />
          </mxGeometry>
        </mxCell>
        <mxCell id="hvOdPJzpOSWR4C87Uo2s-60" value="" style="endArrow=classic;html=1;rounded=0;" edge="1" parent="1" source="hvOdPJzpOSWR4C87Uo2s-44" target="hvOdPJzpOSWR4C87Uo2s-52">
          <mxGeometry width="50" height="50" relative="1" as="geometry">
            <mxPoint x="1960" y="460" as="sourcePoint" />
            <mxPoint x="2010" y="410" as="targetPoint" />
          </mxGeometry>
        </mxCell>
        <mxCell id="hvOdPJzpOSWR4C87Uo2s-61" value="" style="endArrow=classic;html=1;rounded=0;" edge="1" parent="1" source="hvOdPJzpOSWR4C87Uo2s-4" target="hvOdPJzpOSWR4C87Uo2s-46">
          <mxGeometry width="50" height="50" relative="1" as="geometry">
            <mxPoint x="1460" y="580" as="sourcePoint" />
            <mxPoint x="1510" y="530" as="targetPoint" />
          </mxGeometry>
        </mxCell>
        <mxCell id="hvOdPJzpOSWR4C87Uo2s-62" value="" style="endArrow=classic;html=1;rounded=0;" edge="1" parent="1" source="hvOdPJzpOSWR4C87Uo2s-46" target="hvOdPJzpOSWR4C87Uo2s-54">
          <mxGeometry width="50" height="50" relative="1" as="geometry">
            <mxPoint x="1480" y="590" as="sourcePoint" />
            <mxPoint x="1530" y="540" as="targetPoint" />
          </mxGeometry>
        </mxCell>
        <mxCell id="hvOdPJzpOSWR4C87Uo2s-63" value="" style="endArrow=classic;html=1;rounded=0;" edge="1" parent="1" source="hvOdPJzpOSWR4C87Uo2s-52" target="hvOdPJzpOSWR4C87Uo2s-54">
          <mxGeometry width="50" height="50" relative="1" as="geometry">
            <mxPoint x="1510" y="640" as="sourcePoint" />
            <mxPoint x="1560" y="590" as="targetPoint" />
          </mxGeometry>
        </mxCell>
        <mxCell id="hvOdPJzpOSWR4C87Uo2s-64" value="" style="endArrow=classic;html=1;rounded=0;" edge="1" parent="1" source="hvOdPJzpOSWR4C87Uo2s-50" target="hvOdPJzpOSWR4C87Uo2s-54">
          <mxGeometry width="50" height="50" relative="1" as="geometry">
            <mxPoint x="2020" y="780" as="sourcePoint" />
            <mxPoint x="2070" y="730" as="targetPoint" />
            <Array as="points">
              <mxPoint x="1980" y="820" />
            </Array>
          </mxGeometry>
        </mxCell>
        <mxCell id="hvOdPJzpOSWR4C87Uo2s-65" value="" style="curved=1;endArrow=classic;html=1;rounded=0;entryX=0.467;entryY=0.067;entryDx=0;entryDy=0;entryPerimeter=0;exitX=0.5;exitY=0;exitDx=0;exitDy=0;exitPerimeter=0;" edge="1" parent="1" source="hvOdPJzpOSWR4C87Uo2s-49" target="hvOdPJzpOSWR4C87Uo2s-45">
          <mxGeometry width="50" height="50" relative="1" as="geometry">
            <mxPoint x="2080" y="460" as="sourcePoint" />
            <mxPoint x="2130" y="410" as="targetPoint" />
            <Array as="points">
              <mxPoint x="1970" y="460" />
              <mxPoint x="1920" y="430" />
              <mxPoint x="1870" y="460" />
            </Array>
          </mxGeometry>
        </mxCell>
        <mxCell id="hvOdPJzpOSWR4C87Uo2s-66" value="False" style="text;html=1;align=center;verticalAlign=middle;resizable=0;points=[];autosize=1;strokeColor=none;fillColor=none;" vertex="1" parent="1">
          <mxGeometry x="1894" y="408" width="50" height="30" as="geometry" />
        </mxCell>
        <mxCell id="hvOdPJzpOSWR4C87Uo2s-67" value="True" style="text;html=1;align=center;verticalAlign=middle;resizable=0;points=[];autosize=1;strokeColor=none;fillColor=none;" vertex="1" parent="1">
          <mxGeometry x="1980" y="590" width="50" height="30" as="geometry" />
        </mxCell>
        <mxCell id="hvOdPJzpOSWR4C87Uo2s-68" value="ValidateTime" style="text;html=1;align=center;verticalAlign=middle;resizable=0;points=[];autosize=1;strokeColor=none;fillColor=none;" vertex="1" parent="1">
          <mxGeometry x="1570" y="385" width="90" height="30" as="geometry" />
        </mxCell>
        <mxCell id="hvOdPJzpOSWR4C87Uo2s-69" value="Find bus on ID" style="text;html=1;align=center;verticalAlign=middle;resizable=0;points=[];autosize=1;strokeColor=none;fillColor=none;" vertex="1" parent="1">
          <mxGeometry x="1560" y="528" width="100" height="30" as="geometry" />
        </mxCell>
        <mxCell id="hvOdPJzpOSWR4C87Uo2s-70" value="Throw Exception" style="text;html=1;align=center;verticalAlign=middle;resizable=0;points=[];autosize=1;strokeColor=none;fillColor=none;" vertex="1" parent="1">
          <mxGeometry x="1555" y="665" width="110" height="30" as="geometry" />
        </mxCell>
        <mxCell id="hvOdPJzpOSWR4C87Uo2s-71" value="Null" style="text;html=1;align=center;verticalAlign=middle;resizable=0;points=[];autosize=1;strokeColor=none;fillColor=none;" vertex="1" parent="1">
          <mxGeometry x="1657" y="597" width="40" height="30" as="geometry" />
        </mxCell>
        <mxCell id="hvOdPJzpOSWR4C87Uo2s-72" value="Foreach" style="text;html=1;align=center;verticalAlign=middle;resizable=0;points=[];autosize=1;strokeColor=none;fillColor=none;fontColor=#404040;textShadow=1;" vertex="1" parent="1">
          <mxGeometry x="1770" y="480" width="70" height="30" as="geometry" />
        </mxCell>
        <mxCell id="hvOdPJzpOSWR4C87Uo2s-73" value="if (time.Date == bookingDate)" style="text;html=1;align=center;verticalAlign=middle;resizable=0;points=[];autosize=1;strokeColor=none;fillColor=none;" vertex="1" parent="1">
          <mxGeometry x="2021" y="528" width="180" height="30" as="geometry" />
        </mxCell>
        <mxCell id="hvOdPJzpOSWR4C87Uo2s-74" value="Throw Exception" style="text;html=1;align=center;verticalAlign=middle;resizable=0;points=[];autosize=1;strokeColor=none;fillColor=none;" vertex="1" parent="1">
          <mxGeometry x="2023" y="665" width="110" height="30" as="geometry" />
        </mxCell>
        <mxCell id="hvOdPJzpOSWR4C87Uo2s-75" value="&lt;font color=&quot;#191919&quot;&gt;Add time to bus&lt;/font&gt;" style="text;html=1;align=center;verticalAlign=middle;resizable=0;points=[];autosize=1;strokeColor=none;fillColor=none;fontColor=#E6E6E6;" vertex="1" parent="1">
          <mxGeometry x="1785" y="727" width="110" height="30" as="geometry" />
        </mxCell>
        <mxCell id="hvOdPJzpOSWR4C87Uo2s-76" value="" style="shape=image;verticalLabelPosition=bottom;labelBackgroundColor=default;verticalAlign=top;aspect=fixed;imageAspect=0;image=data:image/png,iVBORw0KGgoAAAANSUhEUgAAApcAAAD/CAYAAACkVP2PAAAAAXNSR0IArs4c6QAAAARnQU1BAACxjwv8YQUAAAAJcEhZcwAADsMAAA7DAcdvqGQAAE1tSURBVHhe7d0PbBxZfif2rzyQnEHaWaiZzbUzYHvnlhzH016AjQ2kEyKKiEgj7M1cxEDLORicwS6Zy/XIXm18JgnjtNicLpudYMHm2RmtV0PDpryYEYwbWjDHnkzrsNy5yORBkZxFE7Cpwy7pzG4TEzBZsIVN+rA4CZvJ+1dVr6qrmt3NIlkkv58BR9V/6897Ve9X7/eq+sTg4ODHEJ4+fYqTJ0/KSUoIlgntNdax5GGZJA/LJHlYJsljl8nPqf8TEREREcXgxIULF1TP5b1799QTRERERETtGhgYUP+6afGlpSUMDQ2pJ4mIiIiIWmXHkUyLExEREVFsGFwSERERUWwYXBIRERFRbBhcEhEREVFsGFwSERERUWwYXBIRERFRbBhcEhEREVFsGFwSERERUWwYXBIRERFRbBhcEhEREVFsGFwSERERUWz42+JESfLCJVz94iDO/nIP0qlTOPWMeV548tM6an+7hgf/6y3cWNwwz8Ylg4tXJjHx4hZeuTprngtTwNffmcTZtHmo1PDgGy/jK98xDw/MKGYWi8in9KP66hxGphb0g6l5LA1n9TSqKA9NoNla7mS0tIhinzOjCuZGpmHmtKPdfDbU5RksXsnDfGO0J09Q/7/WsPzuHGZjrz9EdNzxt8WJEieDS78zj8UbV3HpzIvIfMIfWEqnnk0h86tncelLb2LxW1dx8Tnzwi5lLhYx8/Y8rl3OI7NThHL5InK+wFJKo/c/L5hpSqxTp5DqzqPwpTcwP3XWPElEFD8Gl0QHLoPRb7yBq7+WRSoQUEZJvXAJU/9sEnnzeDfGXh1FPnPKPGpurD8X2kOW/kwBY2aaku4Usr9WxORnzUMiopgxuCQ6YJkvXsP4Z63uwJ/VUV25jRtffU2lGIaGXsH0126h/DdbeGLeIp361Fl8ftg82BdjOPtpLwit/bDqLc+zPTj7ipk+MAuYHpHbS/+5KfFjpY7KTW8bOH+vTM3i3X9TN+8RnskiP5QxD4iI4sUxl0QHKjCG8UkV5a9NYPa+eRxwdmoe//RiGrUfrOHBgz9H+U8eIDh6rmfkGqb+wRlk0ymdWv/ZE9RrW1j7y7dx4+YH2NJvC4xDDAoZl/jFN/D+Ky9Ch5dynOW7+IUvj+PFZ9UTwN8uYKg4Zx5I/nWrPZzFy9fK+oFrDG/8hfcdtfuv4+WvfqAfoAeXfmcKY+eyavyp60kdWz94iIVvvY53f2CeU3Yx5vK5iyj+5iso9GXhn1UNW4++i7d/fw4ffGSeFBrGTf7mCnq/MoYzn07r3me5zTfFMv7RddwOlOWOYy7DliVynQXfmEsZXI5g+o56EDAutvWYu63b2j47vN4zMonipX7k/o6oc84yq3pXxer/cgvX335gnvRrua66RJ347SIu/Wc5ZOwxyWL71H64inffatzeRLQ/OOaSKCkCYxg33r8WGVhKD0oT+NznRvDKb30FNxoCywwuffVtvPGli+j5pGmspWdOIfXJLM5evoY3566i09F2xXNOYCnU1vHd79xG+a9r5gnhU3lc9Y0DLWNlw3s9/eJFEf4FfPEsepzgVIQSq4tOYHkWk7fkUAF9YZPPKTn29CKu/k8zGI1j3OlzIih94xpGz/gDS+lUKo3smVFM/Y8iSDbPNXjmF3Hpjau4+IIJLNVzYpt/6jzGRXlc//tt9BCeK+KNsGVx1vn33sHXX46nx7H2f8bTsytPeN74UgH5biuwlFS968H5L/7TkDGendRVUSf+UNSJz+WRDY5JFtsn/YLc3vOYPGeeI6IDw+CS6ABd7PslbwzjTx/hwTcb+2palXl5EuMDGS8ADJH69CVMfq2Di2+eu4r8p8y0UPv+dyHDwPJfrsMNH5/pwdkv+EeBlu+ser1PqRz6A6nz8c/2eMv70SOUv6cnM1fGMdhtXqlvYOH1V8QZ8WuY/Y6Viv9EHoVf332gVXhtFPlPmAdbK7jxG0MY+sI0bq96aeRT3f34/GXzIOjZDDLO54NOZURwNdkYVIc6i2tiWV6M+i7pVBpnv3gdxTaD6p5zY7j2h5e8XmZR15b/hZnelTGMDWRNGdbx6E++gtdkKt63/U4hO3wV16wxnh3V1VfGMPgpp048wm0zbOSVqduo/EQ/jVNZUZ7XYhmLTESdY3BJdIC6nrWa15/UsGom25fHxH9p3Y7mJ4/wbslpfOew8pE3WjPdZy6+KU2o18ub6mlts6yeGwqkPTP/dQ49bk9RDet/aXoY734X61bnZeaXC/6G/XtlPHLTyafQ85/al/0UcfYFb/03/moeFTWVwdgZL+isrlzH3AcyRN1A+RtlrFlDB9OZfjPVqVFc/IzTdVxH5c+u67TzRxXc+t2HVlo2ha7nzWSYehUf/ME0XhHb7rXSu6j82BodK4LgwStmuhkRPJ13g8YnIs6dw/QXZFmIoHrxkVg641QP+gNBvCeF/JUllZ6y/9782jgufsrUjidbWPmD13HLSvN37HIfsk7A+rM6tj78ke5Nl9tvagGPfqpeETLoG7lopjuoq8JonxPECj/Zwo+qut9+a/UWpv/skXfS8VwfPv9rZpqIDsTPPX36FPKPiPZftsttYoGn/68JrmyTmA8ECvbfYsn0iT1XwItuYCKCpH/xZdy46zS+C7h+bcULlJ7NiobeTLckg9HP9JhpQaXEzTQ+wJ/+tdXb2tCwVzD/V17y/tSnz7rBQuZLeS9g/dkG1v7M+Z4tzI7rC1Hk30TJ/v5T+HkzGQ/7IqDAWMV/3/y7oxoevDmB19+pqG28cfcGpqfK2PiZflXKfHrnvktf8PTRCqauL6CiAkARVH/zy76e1MzfdQK1NskA8K8f4MH3rW26G//PEy+oeyaDi9fexvt/Mo+Zr17F2MAjvP73vXJ0x9J2WFe3f2oF7M9dxLX59/HOH87g+pdEUP43r+NzZj5DQ0m45yrR8eTElD938uRJyD8i2n/Vbasb7j/I4JKZbNvfO+31BMneq38UCES/fVGEiI4UuqxYcUfPjSH/aTMtOClxR+X9R1YPX+M9L7f+bM0LtORV5V+UE/6A9ckPHuBGWE/aCyIY/dI1fP335vH2nffFeozjRSsej1Omr4Dx376OmW/N451FMa9v2dusifqPsHrXTDs+WkDVit9SXVEXTnl8JxoieHrbLj/x514EJP2HYvuZybY8k0Lms5cwKbZnLGMTv7Pi67mWTn0yi/zAJYx/dQZv/8tFzJcmcekF86LUYV394F9bQzCkZ04h/ak8zo+M43rpbSzdEUHtb19CO1WbiOLlxJRMixMdoI2fWMHlJ7rQE8cFKjHLfyEPOzRKn7vmDwa+4Q/CGi7c+egGlv+N0+t0Ci+eK4rgaRQ5dwznE2w8uGWmjRfGcP3Wogjwvo7xkYs4+6tZdWP5vZC5eBVvvPM+3hZB0NjnziP/QuDq9I5s4d/9f2ZyX4Xfiui1r76OWyvWraxiG5tYxld+911sWNXYRwSzWRG0X73xDmZ2eyHS3a+oXxaqWz3CPp8QQe3nruLNd2K60IuIOsbgkugAVf7qR1ZvjGgcJ4JX1c5iwhcozKES1ZC75G2C7M80/k2UzFt3lEfhl9sMCkIu3Ln9v294gc1/nMP4f2WN4ayvYfltM62cxfX/fhznu62eOnUrngpWFst4tOP6t+G5cVz7x5fwYtoKJus1VP/mgbrNU0vJ42d+3uqJc2Tw87s5usrbOoWUm/vX5k9Gbtz/ALevT6H8t+YJ6bketJpczzzTJNi+fwOvjbyC6T8oo/LDWnjw90wa+c9fReOlZO3V1QfffA0jE9OYe7+C6o8jKkI6j9Hf5C9GER0kBpdEB+nun+ORFcFkzl1t79Y1jh/+W++CD6TxS3+v0xsOBXxWBF5t9wKdwov9RTNtvC0CDyeKfrYHl4a85GXt0Qf+QGnk8+izNsHWd17HK/L2S78xjevfrOLfmedj8Q/6vSuoxRZ89MevicDtZUz81lcw+0c1LyBuRqxP/ouBMntuFFnrqfr/7Y07jVKrW3OTAXjsvW/+m/BHSyPjG5Obwejf3alObqHyziym/+HLGPkv9E3/3733CFv2DNO/iBflv7utqx9VsPDPpzHx6yPqqvTrf/QuVgI/MJD+RTUnIjogDC6JDtQDvPnnFa+xlbeu+e/e1Cnac04AlkF+YAxXX38T7/yFd5Nwn+/9JX5kX7U98E/UvQfVN7wg05KLXhr7X74ZuB+l5d/7BXVvwZ5zZ9VnL468aKW8a3hQCu9dGhqa9t1kPOyel9/9vrOAp5Byb7dTw/q/CtxY3b5/oQhaNpasm2k/l4U9NHHX7CPgT6uovG0FgZczIvRphQimX34DM2Z7Z/rG8fWSmHbX4wmqf/2umY5261HVTAnPvojR169jVEXZovxfvo633/eGIrzzeps9c8/lMfrbb6JgjZ3FT+ter3l12wr4UshduoaCHCcpP3e95P+c5eLX3vHq1V+8YS7WEoHmvdu48bUv45UPrHWSN0iX/3ZUVy/i6++Y58Tf+79nLgsTgebKn9zA9d96Bd+173rwxFsbItp/DC6JDtjWO7O4fd/uJUvpi0u+9qZpTN/GzFfHcelMD9JuL5tUx9bfOsHQB7jxr6zUs/iOF0cm8ab8/LcmcelXvIis9vBd/8Uzdhrzk+fxdfGZN7/2T1C8XMDgL1vhVdiFK64KyvYVyM/0IB+4B+UHi9Y9Lx0freJPg1f22lcgi8Cq74tFXBQBhg7aBn3jP0/9/C4jzX9r9Xc924PB6/qCkJ5hse1etW6XI5x6tskIxVNp5M32frs0hrOftNLIWw9x25f2j3DzXTywgq5Tz51HUV6oIsv/H52H+/PvTzbw3d8P/tKRI/xWREvfnkHxcz2+9al/fxnuSNd/veUFmsKp7ouY/Jb53Pno+1F+sPgAVWcTyoD4xlUUTLezvLfm9c94deDJDyvQIXYndfUD/On/5t3j9NSvjuobt6vAswdnf/068n9HvSQ8wcbqzsE8Ee0dBpdEB24LC1/9Mkp/0eRihYD65gMsvP4aXrvp3bxo6+Z13PqeHSI0evLDMma/6g9MPvg/IkYW/ifn0WvHlhsPm47zq3y7AqufCtnPTATueTmPit27JGx9v9x4+6Xv3MB3f2CFHr8yimvftoI2axudOv1Lu7soRQR0Kz820yKEypy/qoKcN6cK6JExjjWv9H/UZ6YC6jXUospN/pzn719H+I8fBsmLY8pesBbmZzVU/vg65sKurG9HrYLbv2uV5ke3UbZudRT0ZLPqCz5d35vFtT+uuOuf+pVLmFQBsb635vnnTFj6kwpu/Q9z7slFJ3W18s+vWZ/RAemMqBdLS2/i6/+NF3zXV2/h+s2IOk1E+4LBJVEibOGD/1lerPA6bn9HX6zwxA5YfvYET36yhUcP38Xc1CsYGf+KubG4TQSpv/MyXvvmB9gIfF7+RvaGCNq+/A9nGwKdyus3sPCwCnvI35Of1PALvTkrLVzH+v0dLiERAcqaHTw23PNyC7e/Z6Wdf7aBByIgbbSFud/4ZyHLJNZfrMNrpQdeoJN5EZ8fNtMdKeP61A188AP/hSj1H1fx4M7reGXRW95TL5wNH07w+AG+/I0FPNi0tvnP6qj94APc+K2Jpj/n2eD+LCb+29f1utv3dVS/VS5OKL7xZUy/02HgJOuQrAcrt/H6P57Ggi9AFXVnago3vrOBmhVjuvVmfM1Km/ttvTONl6+Kbfg3W77yktz5fTlkfm3XVe8zj7Ya94/6jzew8vbreG1qQbyTiA7SicHBwY/lhDzTlGOniIiIiIjaYceR7LkkIiIiotgwuCQiIiKi2DC4JCIiIqLYMLgkIiIiotgwuCQiIiKi2DC4JCIiIqLYMLgkIiIiotgwuCQiIiKi2DC4JCIiIqLYMLgkIiIiotgwuCQiIiKi2Jy4cOGC+m3xe/fuqSeIiIiIiNo1MDCg/j0xODiogkv7B8eJiIiIiFplx5FMixMRERFRbBhcEhEREVFsGFwSERERUWwYXBIRERFRbBhcEtH+ujyDxaUlLJZGzROOScwvLWLmsnnYFvnZJcxPmYcdGC0tqgHpzl/j8hERUSsYXBLRgUj1FURImAyTt5ZQ7KuhPDSkrnYcGiqj1ldkgElE1AEGl0R0AOqo17Mo3EpAeHl5Bv3ddVRuTmDWPAUxNXG3mqgAmIjosGBwSUQHYn2lgnp3oWkq25eqXpyBrx9xat577VbOPOmRvZHe69Eh4ui5XqTq63h4xzzhKE1gaMgOOHXq3flOd7lVmt+fzlfzducZ8TlBvm/x1rwaJuCunxk24Lzfv+yjmFl0XlvE/C2xfezt4vtsp0MMiIh2h8ElER2MD6dxe7WO7PlA0OgQwaOXqp5DBXkU7YBtOIvqXZ3GnttOI2tekWRQWjhdwZzz2dOFyBR3tisFPN7CgnkcTgZ1BaRX59T8hu5WkR02wdudh1ivp9B7zvn+SeS6geqaDEsDn7tZQdr5nJES712Wr41Mi2UQ7381j5pZL/n+ene/+/7R0pjYCs56LQPdYtldYptcsT57t4b8lXnxLBHR/mJwSUQHZmHqtgoax0ICv8mcCBc310zP4QKmV6oimMrpYGkqJ4LJKtZK6kXxPcvikWMUZ3pSqK7IYE3Sn031nBGvdOjyGfSm6li/b0LQUhkVN6BcwMONuvf9lzNI1ysoy2VTn6tiecp87s40ljftQFRw11ESyzoyhAmzXni+C174qNervvHQrNcsyiI4d8lt4sxXUsuYRW4XFzkREXWCwSURHSAT+PWNBVK4o8icBurbXshoG82k5YtWQFnFthtnZSE7I7PDTnpY/A2LQDXV5evddFTlB09nmgeeKsirYSuYOjdUcJvqxRmxDjLNDicAVJ/LouCmqpdQ6JaLErYkmi+dfz4NL3zU61XbMoFqgNomqTyK7ryKyIv3pzMdh9RERB1hcElEB6s0gfJmCvmX7HGTC9h6HB2ELWzVAsGiDrw0HWg6KXPvzx4/6Vm4v466CQx97LGUH26LIC+NTPA9rlmsqR7JSZzpgdfDqT5Xta5CN3/jYUsiuBcXmfe9tW5ekPR6RQWLapvUnZS59zfi9JoSEe0TBpdEdOBmx8uodmd9PYuza1YaHKOYOS9edVLIpTURamXR76TTVZrcodPU9lhO1RsYvCDIYVLV/vGJeuxjanMZ07K3MjiucqqAvJ0mF+TyyqvL84/NZyT1OWs55bjIpZ3uoZlC1/N6avIlsQx6Ugik38V3Ffq8V9U2SeVR8F1otLt7fxIRdYLBJRElQGD8oFSawNxq2qSUi/pCFrfHbxYTNytAX9Gkj4Gq9fGFqRGUH3sp4kJ3FWV1wUy42fEha156fr0bc1YPoxwLqe99qV5XFxONeEGkpAJesRzqQh5H4HNLBWQ3y9G9iSrQ9VL6uTURdFvBpjNGVa9XDtu+baa3SdoZDnAlD6zOeeM3iYj2yYnBwcGP5YQ8GMkUChERHQ7yqvhi13J0mp2IaJ/YcSR7LomIDgl1X0wrxS7T4lEXPRERHRQGl0REh8Tse9ZQgJ1S7EREB4RpcSIiIiLaFabFiYiIiGhPnLhw4YLqubx37556goiIiIioXQMDA+pfpsUTjGVCe411LHlYJsnDMkkelkny2GXCtDgRERERxYbBJRERERHFhsElEREREcWGwSURERERxYYX9CRYY5lMYl7eONk8ctUrmLN/N/nyDBav5JEyDx311TnecJl8wvf7UcwsFpG3KlD17tD+/Eb11DyWhoHy0ASO6w8atrzfS8F9v0XqZyN71kM/K38FqIAyf1LS0vGxmPV5z+zHfnLQdtxPu80D2+be77tRxwi7TNhzeQjJhl4WoP6bQwV5FBdnREhgq6Ny03rfTf3LHvNT5uWYyEq2dGvSPKLDzwSWj8WBw61jZWB4yao78iBuP26PPGAuWfWVdag1/v3e/MXRYMqT0aVFzFw2j6llrR2Ld8Z9ID57tp90ZHfHyh3JQNJeT9HO17sLeze/EFF1l8HlobeA6ZEyqqk8Cs0q1J2HWK8D6Uy7hz06XrLoSokD9Jp9RjqL8mod2dw+NH6lCXGQZC/PQZodF40Uey07EHIsZn2m/XRnGsub4ii+H8fqHTC4PBKq2N4pcLx8Br2pOtbvR5y/yfSNOMPSf8FeDH325bzunBXJHijVLS/OlNSZS0MPiP+sTZ/hzGBm0fmuefEOShZdl4IHp4WpERNwyJ5NnXrKWr2ZqmzdOmLVAVUn5jFvXp//9jyKfSJ6FQ2w7OH5WrAOqXpo6oWZnpE9nea75fzsefnP0MPr6bFg9r35W9628vcmyHJzto3Y5l3mabnN1BCaFPJXdLnZPRHh+6y9nf37sOqVdl7roAfv8Asci+36rMrI2W5e/Ww4jkqB93plqctx8da89XrgOOr7rP9YftzLRx87rO2lyseu983ap+bHl8ZtG36sbFY+Tvk6r3n76W40We6odt8cT7xl098Rts4NdddgcHkkLGDrsWivu+zRJrKx8CrUkmhAandHMH3HvOwjKs5w2kuj360h/6pz4NE7SHp1zu12Tw/rSicDjrI4S2prjEd3Hl0rej7lzSwKx7IBSrIFTL+lUytO3Vks2SVkemfElDsOUxygCqcrmDOpmfKmqHsv2QeaLNLbuv5MfGECc6ui9TVjoL66Yx3Kohe31Wfl5+RBOrfmzEe8en7nenpUyHV392fz5z/Yp8TWWnbX306PjZbGkIdTRstiP3QG1M5iQr5XDaOJOD509wJvyc/NoVIX++xSDmvqe2Q9yKLfqR+iHhT7aiir10T5PBYnEIEG5+gLOxZLon6+Ko/Betvo+qmDl8bjaON76939vrqcEg36strOpkzc7SyO5epYbz4rj+VXTJB0TMqn2X4ie+VVu6PWW7Z7WXEcs+p9ZPu0w/EldNtmG4+VzcpHiN5PWySCwn5RN7zMU7Plbtbut6ZZDMDg8sgKjLk04+b8gYLNCghkKscZo6J6PKtYdi4EUt3uKfSea6cKWkRQUTYXhsy+Jw6aqV6cOUIBwJEgynjE1BsZ0KX6iiGBjMWuL+LQlDmtJixNesx35NW9ha2aerxm6k9VdhE54q6nCRQ2lsx/kZXY598zB/g7W5BbSxvFmZ4U6hsPTRnpYQ4t21w2ja8OnLC5ZtK8upfOMZnLor5adlPAav/uzrkNJ1knQ2ofi0qXyxM4q2yf7xJHZz9vO5sycUzlRLjv7SN2Wv64lM9O+8nsuAj41MlzAVkRFPn2oaj2aYfji9y23n4h5yHmG3ayLMvHmgdKZXVykFPH1g72U6sTQP2JwBUikHTXacfjYkS7HwMGl0eCbtDr2/IcKYquqKmeM/rg5jOLCdkLYVdU54xWHdhkb4VXgWU3eOOZeYseb3mV19cAUhKpdLg4OOtew2CayPClecbQa57eV3HX0yNFj6OtbXnNhg7U46SPQc6JiPpT6fY0Msfq5DHqWCwDRnPBj7N9mmRt7KEfS+fT4rShNaOZtJy56i3zY/l4nKCtinIwAIxqn5oeX1ppfzVVPnJIkPs9+q4cehhFB/up7DE0AbTKCIl1cgNJqelyN2n3Y8Dg8ihQZyf+Stk+WdHMmZ5Kw5iU2ofb4sAmdkLnNecvNIXZgtMZ74B6OSMObZQocgxOSKPX7CA3+ZJopNyD3AiW7Z6U/RJ3PT1SGsdkq0YuVroHTd7uzLf9RX0IH4pzRDU9FuseSb1dRKMugoyxsEySSm1amae31s0LO1P7aapLhBNBLB+X2L5jfWJb+IYTGFHtU9PjS9RQiEaqfOSQoMD36FsE7m4/1SlqsU728XvH42JEux8DBpeHnh6fk7K72kNNotBnd7lbgoN31RlbHdsfyml5lbk1rkqO0xBnOKHpdfU5q8tdpWgCrDS4Ckrq63h43A5uSVZaU42efyyWqGPnRUlaaZ8GzkHZjPnZd+3U02NnAQ835PCGgul51um3uM2uVa15iLmoCxwieruPpGbHYl0fvYZbBxLRHQIpdD2vp9RxUk/uTO6/4qir06yCdWxn+Ui6jLB6GyNyPGQwmIpqn3Y4vshtC2uIgdq2YT3T5vjq3k1AlY9TL3a/n6qUv33S0my5m7b7LbTlO2BweQj5ByybexI2jJUIXNBjxpeE3kRdjv9RA4u996bFzueMs5KDkmtuOsX/PXqnKpgdyaTenffmtlGRPfW2zRq6zHwK3eKMKsYxHhQHeSY7h8ppeyxPEb0bc76z3TV5MY0Zw6vHJplUz6vAskzP2D0AAQv31837dcPmr0Odal5Pj4KwCxVaDQ7cXg31mSK6HlspPNUA6ePFrnotSvJirbSbgiv2AZWbR/s2PK0diyWxX6mLKfzvdcbG+fYBNS7O++7cmggYrGCzucB81MUjpnfymJRP9H4iL24R2x0V3FbHBbGt7opQ3L4wJ7J92uH40rBta+az/mNlWPnYYySb7qct8dpgJ2CNXO6m7X4Lbblh110bf6EnwY5amchxRPzlj2Thfp88LJPkYZkkT9xlwvZp9+wyYc8lEREREcWGwSURERERxYbBJe0b/qwcERElEduneDG4JCIiIqLYnLhw4YK6oOfevXvqCSIiIiKidg0MDKh/ebV4grFMaK+xjiUPyyR5WCbJwzJJHrtMmBYnIiIiotgwuCQiIiKi2DC4JCIiIqLYMLgkIiIiothEBpfyp5Dk4MzQv1t7/VP38jdAd/k7t0eS/tH5xu2/i+01NS/KtLXfJyYiIkqkyzNYNDHK/JRuE/cnXqEwkcGluqHokP4rb4onNsvu445vNKoK3/qR+FDmx+VT5iE16u7fYRsSEREdN1WURYwyUVrA9MgQ5lbr5nnab8lKi6vgUwSWj6uiilCUuthf8q/OiDCciIiIKFk6Dy6tLuilQG+kL6W+6ARBk5i/kkdK/Je/EtV7uYXlm7JndM08pjC1lWVUU3mMlZqEl03KJ0ymtOiWmZde16mFRWs+qmydNINvHoG0vEq3O68F52/S+21/joiIiJKuw+BSB4q1uyZNfrcmAkYzbk8EB4XTFcyZFHr5sRMEzWLiZgV18V/l5gim78g3B9yZxWzY8xQgtuXdKlJ9hYixkv7ymVuFVz6hssh3LZuyrCI73EpQJwLPV606IMo2PezMQ8x/OC3K2bwm64fb0yoD1gLSq3PW55z5NfscERERHQadBZdTOWTrFZRL5nGpjEo9i5zTA5XKo2Cm5djNkakF/YDiU5pAeTOLQthgZVk+qGLNlM/C1LJ4ZJVPAxHwv2fG0aqyTKH3XGshXfa8Cf7uTGNkaEKEvY4U8i+ZZRPLOjQyDVULLp9Bb6qKZadOiM8tb9rzi/gcERERHQodBZejmbQKIItu+lJfgJPOiABBBgSq98t5rcOrmGlHs+9VUO8uNGxfVT717TbGrdaw5fYYL2DrsZlsSg6YnkMFVj1wh0DMYmKojKpYNqcOuKn057tE+CiCYud58VfoFtWpK9v8c7QvRq3hEbyLQDKwTJKHZULUXEfB5cJWTQQvXurb+XN7KGWAaZ6TV2tl3XQpxerONG7L7Xu+gC7zlKTKJ9UlQrhOjCJz2kzuSF+Rp8taBIW+caAyUDSvyeEQThD84Tbq5oo+p46oP/cOBBGfo32xMDVilYvdE00HhWWSPCwTouY6S4uX1lQg4aS+nQs7ZBCgzujcHiwT6LTVi0btWJi6jYoII7P2rZtk+Vhp8NFSv3jkpckbZdHvBIVTBeRTdazflycKuhcz1XPGlOckct1qQtAX5XiBXxXbdaC2JT6n6oM1bvPOFmoipNz+UE4/xHrdmp/5HnXRULPPERER0aHQ4QU9s+rinLST+r6SB1bnMCGCF3lGJy/icVOl8gKNt8y4ORVYyKvFmSqPzwKmV4Khu798in1A5Wazs+sq1jFmykuEoXe9C65U6t0dApHDtnvfsEAdULeQKqs6oMZfqou8nNfkBTy3zXfK3s4yan1F97XsZln3ejf9HBERER0GJwYHBz+WE7Ixl138lBwsE9prrGPJwzJJHpZJ8jSUicx8XenCsjVMQWZSi/JOKJ3+8Au1xS6TDnsuiYiIiIgaMbgkIiKiI0DficT5bfFiH39H+qAwuCQiIqLDTd1rWV/B7/y2uJxmSvxgMLgkIiIioticuHDhgrqg5969exgYGFBPUjKwTGivsY4lD8skeVgmycMySR67THi1eIKxTGivsY4lD8skeVgmycMySR67TJgWJyIiIqLYMLgkIiIiotgwuCQiIiKi2DC4JCIiIqLYRAaXk7ec33cO+bs1ad4VM/nzTfsxn6NAbat5RG4h9foiZi6bxwepybKoerbv5axvsLtYGjWP4xO9Pns3z6NpEvPiGDA/ZR7GbWoeS4szolT87OPens370DqAMmGbcMTp42KwTsmfbXTKvOVj5r63eeHLTlpkcDk7bm5AKv7Km+KJzbL7uOObkjYtfHHgupJH7a4z3zKq3QU2xmHkdhTb6nD+9sAeN1COfT/QHHf7VK5xkEHMcNY8sIjnC91VlOXx524V2eEmJ2+HwmEvE7YJR5sMzorIBxsycewe6wMqN0WZ36wAfWMJPI5HLDu5EpQWn8WEOIBMlMxD8XhNBLWprpBG4BhTZ3TygLtZNc8cAuqXE0Ywfcc8Ppb0L0aMTC2Yx3QQVM/kcBrVzbp5xjOZE8eazTVx5BFKZVTqWeTYK7HnosuEbcKRpU7+RXD2uIpgSzZ6rhep+joeyvZCtB3Lmyn0nkvQCUWTZSdP58Gl2sAmVRHoIbJTS16aQ5+FpsR/+SvsUerY1jLm5AF3zTzeybl5tyzsM/5g+lYFrVZKKrwM/dRnrO8Ifqd8rObp9iLKs70CZNOQHbZ7VDIqvaDnF6wbuvfFWRa7FyZ6HVqta2e8726ajmt9mXzMd+jtrlMo9vaYv+WlfoLpPnv7z9+SZbh/vWhNy172MDmviT9v3QLlqt5nLbNbB+QDvS30eonvcdbd/u5bOf2cw1ce1mfU8/a2Md8dVSZrMgMzgvK2eewaReY0UN/2NxfpjFl7sz4zVrrOnYezbiVv+eV26Si1F+F4lkk79DwWSzPh+3RE+fn2s6jloz2whWXZMzne2JBlu1LA4y1xOu5p64SiozZP1x/nc/b7GkUvO3k6DC4D6Yq7NdGIm4OJ2IkLpysqAJKvlR/nMaYKWJyF3qygLv6r3GyhF0scoPq7geoafxfUtlCa9e10zYngqmdbl4VKLxRbO4BGlqHfwv111LtzphGZRO60KF37cXcd6/ftpZW9d2V1tlcVdcftkejuBd4y8xJnqflX7R2+gPTqnKlnMlXZLFh0tFbXUn292JYHiaE5VJBH0T2g+Ov33Cq8+t3qMskG9kov1sX3h/dWpkTDv6y/Qy5rd8ErG7n9nfSsWLbt0/vYU9O07MV2GU7rdJVZ91RfQTwbUa47yJ42dVMNs5HfnVWfV9t8O60CI01s81et443aXv16m995iHW7h/HyGfSmqliLWIZZsf80U9tyymoBW4/NpCuLfJcps4ZyF/W2a83aLkWM4bZel9W62U4dOuZl4mqhTYjep6Useq0ykUF3bk0vvxz6lT0fCNpp79yZxWyTGMA+yatuN2YZonXW5o2WxpB/7Az9E3XntHU8Dtph2UnrLLicyiFbr6DsHCyCKaRUHgUzLcdutp8K1I17arPc8kGRwlVXpnUwqtIL4gCaa7GJa6UM72yhhjQyskG5nEH68bKYh3ms6ohJbexkc9kNAH0HEtUoWQGqqmcxpkjc+YqGeEUczJzAWC67aJadxnBhalk8MvW7lWU63W8Cy2YnUSLwfc80kmo7enzpWWfZ9lNk2cs0pbdOo5m0nuhQfeOhrptS6DZ3yEDJCpCe7xJNiGMBDzdEoGDqtUqpudsublaZNZS79dqH2+rExqkjC1t26Xbo2JdJi21C1D6tVLFstpsuE2/d2gtgKMk6bvOck6Ng3aaOdBRcqgOYONgVnS5kOf5AHFlUCqk0Yc7qvS7m9tIN4iCyVEBWXkDU6YVDZNSx/aGZFFo+gLZchnIMlG5gZQMCcbZZ3YZ+LOqIr6HqhGqwatiKDNB2x5cCVQGBpup3fdtqSC2tLJNsZUXgkX+pxYOaT3h6dt80LXt/6misxzwdg8ZtXoVdXX1p4fOibpnnJbsHXabUdpPtcNPgphz87HIP69ncI8e8TNppE6L2aTpc7DS4SpO3rLM2b2FqxGSonDrdSoaMmukouFRnfXUvTeP8uWfT8mBontPpB3v8TTP6IKJSjgwsY9fWTtpiGc6uVdWBINsF1VMjGxV0ncEZ0cj5U+IdUI2D6Qnda1bPi6rfqS6EJqNbWabNZYzIlKSd6m6ZDloO9KKFqLKfKoiTSCddL/b3lRh65IzGbZ6FW11VOlQOcdDzHXpL1DGbm4aVQzG83qj2hAeLXppcsss9LPjcQ8eyTKT22gTffuPrTaXDIiwg7PRku502TwaYzj7mH55FnegsLV5aQ9VK06jxZSLalw1p8MIQHYhG9AL56LFs8uy0/TQ6hbN6zwLjldQO7KaMRkUw6O2EbZWhDLa6+9F/2vTqyBTv6V70osWUeDOqgbJSj6oh9dKNzdahFd44OFH3zotGyb1SWNRv0ZA6wzxGS/3iUVU3kDssk2cWE6q3qdUTK48M2O31Usu2T3YueyfA2mG5VBBubUOZGtWT4cw273fGEqqUrC2Fruf11ORLwdtwmTTssDh+tHSsCadOlJw6YYI2f1DUSrnH7/iWSQdtQnC/2bMhErRXdK93v+45NCcxre9nnbV5wYt91HsDFxVRezq8oEdfMJF20jRX8oA4s5RjFGT0LwecuylzOdj8LWcMhG6YZddzQ4+OGssm/u0umG5p82cdVKlddVS2cw1lJDnjCAtqO48BG97hv2kZBpkyTcFpQKpiShRkZEpc305Epvh2voJWjn0po9ZXNMshLy7wxpc1W4emdc2or24jpz5bRB4VzLk9I/76XVT3XJswjVTzZfIxY5ELTa88DFGaEGfOEeu1x5qWvRlnqFNHYrlW5EVTTmATKFdnvJPZhmPiZKP5WuhtLgfgq/meFzXJ6cAIfFduTV6o4gU2kmqQxL+7Gophb3dVrk6ZO6qodbVQ7jE7tmXSQZtQF8vUr94X3Kfp0BB167aTolbt1u029rPO2rzZcX0Rj1PHin01lFl3duXE4ODgx3JCblDZHUzJwTIhZWpeNOzbmBuJCPB34ejUMZk+7cd2K3ei6IQsg2GgPBQMOOPHMumE7OUsondjbk8yXzwWJw/LJHnsMumw55KI9opKg7q9nSa9xxRNczJl2+rdCWh/sEyIji0Gl0QJo9I3biqQ6b2dqPFSzYZu0L5jmRAdb0yLJxjLhPYa61jysEySh2WSPCyT5LHLhD2XRERERBSbExcuXFA9l/fu3cPAwIB6kpKBZUJ7jXUseVgmycMySR6WSfLYZcK0eIKxTGivsY4lD8skeVgmycMySR67TJgWJyIiIqLYMLgkIiIiotgwuCQiIiKi2DC4JCIiIqLYRAaX6ia4SxF/7f5Wcsvkz4V589n5t6ePmcszWFxa1D/of9Dkz+EtzYsSa6TqTot1pJ33tiWm5aODoo8FUb8Lv2uyfoT8RrV93NuzeR9aB1Am6pjnlQn326NG/mxnY51Sv1JmyrzlOGC/2kfWyZZEBpez40Pqqh/5V94UT2yW3cdDnf5aSNPCl5WsgPTqnJ7HzQrQV+QB/jBIUtBLB2SPA484qd8Jz5oHFvF8obuKsjz+3K0iOxx+cnJ4HPYyEct/JY/aXdPuDJXVL1ex0+Go0L8Hn0+Zhw7Rnoz1AZWbThwwlqC2hXWyVQlKiy9gemQII1Pmx8LuPMR6HUhnWGiJVJoQO9YEDuOPEqoTJ/6c4rGkeiaH06huioNLwGROBDeba7pOl8qo1LPI8eR2z0WXySwmRAM+UTIPxeO1TSDVFXJiQIeL6pAQgeXjKqrmKcfouV6knN+kvzON5c0Ues8lJQ5gnWxV58Glr2vY32tlp5a8NIeO+FPiv/yVFnq5Lp9Bb6qO9fv8ZdoG52TKV29f+4wpmO5VqQV3++v0g1suEV356jPWa8HvlI/VPGVPg0o7R5VrxprfTuVtvzfYW6R7X5zlbpY+CUtzambdzev2OunpeWsegWW16/mieJ/4nqizVPVd7nutZXG3ldHQ09tkHZvsZ9Hr3lpZR4lcD0mti/e63hY66yAPr9lhs/xN11kv37zY7up7nOWzv/tWTj/n8G0H6zPqebvOmO+OCgrXZAZmBOVt89g1isxpoL7tb+rck1uzPjPWNnfn4axbyVt+uV06Su1FOJ5l0g49j8XSjLcvheyDwfKzt2vk8tEe2MKy7JkcXzOPPdmuFPB4y/eb9G0Fb3vYPlLrOgwuA13Dd2sisDAHE7ETF05XMKe6jIdQfpzHmCpgEfHfrKAu/qvcHMG0PCsJZQpZBiyby03ed1yJIK5nW2/fNoYOjJbGxFmiM7RhDpXThdDPLdxfR707ZxqGSeROixKzH3cHA/6Icu3uBd4ydUCceeZfDTSItu48ulac92ZR8O3w1lAJlaq0AixR14p9NZ3GlOuEPIoNBwX5HUX0bojvGJn2HbBc3WlsywNdw7KKz76aB5z5r4gDXzCF44is9zsJrKPYlml3HZvvZ9666/k5695qWYdquh5ieYbTOl0lXxflkeoriGdl1qGseiCqYlm9s/rmsqdNPVa9yPK7s+rz8rvnttMqMNJ0ObjbQda37n69jVSGw+phVCelVaxFLMNsqXmPdW3LqSEL2HpsJl1Z5LuW3XX31UW5X3atWduliDHc1uuyWjfbqUPHvExcImjt7xbrsxb9/lRfr9mXw44HWfRaZSKD7tyaXn459Ct7vskxiuJ1ZxazTdp2+ySvut2YZYi2t+1jgxbq5HHVWXA5lUO2XkHZOVgEU0ipPApmWqYg3VR3S3R63ClgnkE0qq6YIEmlDMRBMdfiNnIO/mYbhzY4d7ZQQxoZ+b7LGaQfL4t5mMeq3E26YifWicGOBwerLs2+JxqpVC/OqPkHeq9VPfNSJL40plynFXFAcgNhKY1+E1g2rYNRyxo6fz0ZqpN6H5yHKNORIROky+0twgO3UbaGIsh1r6+Wzbqb7WaveytlHSVyPWRKyDuBGM2k9USH6hsPdT2WAuu6MLVspcsC6/B8l2hCHAt4uCECBbMPqJSaWyfiJk6g3jPfHKiLvtc+3FYnW06ZLmzV1L+7cuzLRJ9opTbLzeuyuy+HHQ+qWDbbTZeJt27tBTCUZHvaPvq0WCePqY6CS3UAEwe7otOFLMdOiCOLSiHJBlCd1TuvdZpuCDs4kGzEtj80k0KrB8WFqRFxtg7krzjlYve62OQYEt1oykYB4gyyug39WJS7r/GJi50CUcGtoRqsGrZMw+kXnsb0k83dLnqNms4/oNN632Qeaj+rb1sNukOvu+wdc+alevrNSUHrZR2i6XrIXlbv+bEe83QMGte1Crtq+9LC50U9NM9Ldm+7TKntphfBG+Ott7GfXU5hPZt75JiXiWrElwrIyotKdxgr7TseqCCfDiM7Da7S5C3b6/bR0XqdPK46Ci7VWV/dS9M4f+7ZtOph0c/p9IM9/qZ10Y0rOdrZ8eQO5JRLs1T17FpV7dzZLqjeF9lQoOsMzoiGy+1h2yuyt9RM6sbB9Jo20I1787E4VSyPjOhUeyc94E3nH6KTet9kHmo/S3VZqUiHXve6k0p3/7werFbLOlTUekwVxEmkuZpa/I2sxNAjZzSuaxZu1VapJznswqznW6I+2tw0rBy2UfV6etsSHix6aXLJLqew4HMPHcsykXQjroaNtNCI+44Hvt5UOizCAsLmnQjR9qJ9bLdOHledpcVLa6haaRo9gFufTfsHyZoDVEsBoj4D9wbgTqLQl9qbnrJDTVT6l0zIEhjvoXZKt6d3VASD3o4VHMys3hsYNO2SAU93P/pPm54a2Zt4uhe9aDEl3i43HSGW86W8daWgbKCs1KNqSL10owyC7fWdOS8alpD02+y4vl1E2z3oofPXk0FN670KIL1hIypNqCcb56EOXKZnSu5n1uf0fqbPqNUJgNUjqy8e0QFHW2UdsPP+6wRYZntHabbOYcy69jv7v0rJ2lLoel5PqTqiJw2Thh0uILuLk1HfNjVBmz8oiq6Le+n4lolsE3TvUEtDTKQWjgeUbLrX27QJ5iSm9f1sr9vHDurkMdXhBT36Io60k6a5oi96kOMOZPSvLi5QXcviTw42f8sZA6EbUtn13NjQy3EOZdTcVB8LMFwdle1cw3aX9JioLApq+40BG94hfXbcjGE15aIuBok66zLllILTKFTFlNgRowL9puXags114FW9XOo+g+6FN4E6oS4usC4aKk1gbjVt1reIPCqYC12nWZQ76kEX839LDwpX889tR465bF7vzdgfs7+MiSDdK5nGei/PiHWZNu5nNWf9fesuy1PeF06Px2yrrAOarocZZ6hTR6J+rcgLuZzARt+SQ66jOkFsus5h9Lq62/q8qHXOtg58V25NXqjiBTaSapDEv7s6GRXbVPVyq/WWdS14q60qal0RdXEPHdsyUeORxb/ixFDN3/mzAu2gulimfvW+ZscDSjRRt247KWrVxt1uYz/b4/axgzp5XJ0YHBz8WE7IDSS7gyk5WCZJI89ai+rK9qMygPvo1DHZ49uP7aZ3otiFqXkR1AHlfbi3K8ukE3rf3PHivQ7xWJw8LJPkscukw55LouNANo7WwG6TCrUHjFNCyJRtq3cyoP3BMiE6thhcEkWS6XTrCsJ9TIVS69R4KTtVTAeOZUJ0vDEtnmAsE9prrGPJwzJJHpZJ8rBMkscuE/ZcEhEREVFsTly4cEH1XN67dw8DAwPqSUoGlgntNdax5GGZJA/LJHlYJsljlwnT4gnGMqG9xjqWPCyT5GGZJA/LJHnsMmFanIiIiIhiw+CSiIiIiGLD4JKIiIiIYsPgkoiIiIhiExlcqpvgLkX8WT/wvmfkz60ttftb0Efc5Rks2r8YsxfcecifUzO/Fb5n89XzUL97vEujpcUD+H3X+JbfpvY9uY/JfeCo/mbtXu/fodtO/uKScxzjsaXBAZSJ2m+ttkUdb+joU22KV+7BmMKuFy0fX63vnJ/Sx+aw76b9ERlczo4Pqat+5F95UzyxWXYfD4X9oHsrWg5SRCMwnDXTtP9q2OKv0MSrzQC9vl01U9Q2GcSEHD8mbxWQNcex8mYWBTY6+yesTMRzxb4ayk67creK7PAenzxTAoj2/Uoetbum3IfKqHYXvCBSHCvH+oDKTfHazQrQN9ZGnaiq+jRRWsD0yBDmVuvmedpviUyLj5b6ka6zUhyIOw+xvrktdtEFbD3m72gfhNm1KmpbC8CH26g/3uLP57XB+dnB6mbw+DGJXLdoetb0ifHsexXUu3PsvdwHkWVSmhCBxQTcrorSmjjupND1vHlMR9QsJlQAaB6Kx2ubQKpLn3yMnutFyvlN+jvTWN5MoffckczfHGmdB5e+bm3/2aYvpe6mQfTZSkr8l7/S5OxUnrX0rOP2Ss08QQ3OyfSV3r52ysBNpxr+VLGVJpB/kb024oxvXP8e8Ox44He0I+Yr+co8+N1N6oqPSstZqbGmn7PXZxGFLvN0hMjlU/Ocx7z1etM0jL1MiwX4ZxvYxm6KMbzu+1KCdrpQNLrqwCsOrCOdZgl2IXz/Fcy2cree2hZmfcz0/C1rnQL1wP7e+Zx50uEra+uzcp6+VKpMbTepQ2uyZ3IE5W3z2HE5gzTqgZOlNDKh3+MMd5jx0ugh22HGKj9ZZ33rF3N690iWSVuSVya0N7JdKSBwUu0EnnR4dBhcBrq179ZEo2kOcGInL5yuYE51dw+h/DiPMdVYi7OVmxVxeK+jcjMQtFgmXxLfu6KDGwojApSebb19Vcqg2NJBc7Q0hvxjZ2jDHCqnC20ebKPnK4Mkr8wDKY5AXZlbhVdXbLJxGIZJacgnmtQxQa0PnHkuA93igBSh+fJJWaS358x8qkhFpmFEA/dqHlg1710Rn7Rm27CN61n0R9V9sb52SlDuJ8VAw38gIvffVqTEllzW6y/XV2xnt47J7+3WKSu5bbZP242F3q5uWavP9usykL1ZqV6cccpjKoes06sRYrbULBi3hnvc2RKPmkv19WJbpuZkWYra5i+fLHpxWy2vTL1lh5eQW9PLL4cRZc/bwdcuHeky8ciMVRZVrLk9Wo0SUyYUH3ES029lFSR7WFB1m1nMw6iz4FIdTCooOweBUlk1pDnnoJXKo2Cm5djNkakWQ0V5sEPZ6i6nMFUn+FYpA3HQzLUYlDiNg+ydHLHTEq0Jn+8ozvSkUN94aE4IZlEWB/ZUzxl9IJd1xWowFqaWxSOrrkg9YyawtFJkTetY+DzD7bB8ShXLTh2VqWg91ejyGfSm6li/b96rlklPSgtTI9Z45CzkCXiUyVwW9dWyu76JStN2uv/K4Pk9s0aB4E2uLzbXzPqK+rdijykN1Mfnu0RI5JApMy8tprabW5Z7bHPZnASb5fWVj1dnFrbkmnp1fE8aw6NeJuLYX+xLoXrXOgaESVKZUAx0J0Jqk+3+UdNRcDmaSauDXdGkG5aWisiLI086Iw42chyNGpjdbjpCnCmfT3sHQorgT+21etCUgY/uNXTKpUkaK1TUfHUQpcYIhlB1pS7HcEZLic/X3V4+rWkdC5mnbkzCNF++tqgG1r7YSY5LNZOSaCCdOr+0JMcNm+cbjCJzWqxeX9F7v0qbR6Vp91HH+28zen19FykFgnhf2lccB+zX5BhUfTIgv8cK7ttmbV+VJm+u2fLuqyNdJoLcb4bFKejdnU94E1MmFAM5nMJcZBcY/mOnwVWanA6djoJL1ZDXvTSN8+eeTauB2vo5nZ4ISYMGqV4hOSbNHMzUlYVZFNoOgo6XdnY81bNmyqW8Kbb1q52nibz5ViHjTB30NVJ1JdUlSjJaffU2Rt7yXxXYvI41zlMFo6GaL19bVGNmB4C6gdbkyZHsjTQp86HbWDevNNJBqfde5y96uMi+6mT/bUqvr2/clN0TptJicsiA2Q5vBback4adEscIsVWj0q9NhabBm98VIXJ5D8JRLBNJBZZpNZ9Weq4SVSa0CzqwTMtjYCCwDOsw8Z1U0KHQWVpcHVi8NI0z8FueTfsvInGChOY9V4q8eMEcPNWfOFOXgUE5KQ1uYoig8CXTrATGqqid0k0T6XSwQ/VCWOOT1HvbuhI5ar4LeLhhp5knUeiz0tCyrojQ0kmDR46rEuV/W/asOgFvkzrmzrOvELqufjssXzvklfR1ezvIEyI96XAbv6mC6mmNonp+3OU3+419YcYBabr/quDaKkt5Vaee3JFcX29YhigFmZL18a4SluOu/d+r07D5YfF8x1fPm+8wZafm4aaEI1j7kjxx8FLI++vIloncp1WPZRvH+ISUCe2GKLtF3WMZNrxj4f66N75XtTW77BmnA9HhBT36AoW0k6a5oi9ykGeesndMXZwgn1c9kOKs9C1nrJ5pnK/EkdY5ruqobOcatrvkjGcsqG0/Bmyo5keZHdcX8ajPiT91MUlbVyI3m69d5sGDhr+uFNX9y8LHVanlFwGlfQFYWB3T7xXzlPcqVPMsouuxt65BzZevHXIcmr4gSC9TF2qb5iX5mhoDZl7LramLCNxgM1j3SxOYW02b5W++XfZT8/3XjLU1ZTKGdR3gtEKtrzcso1980u2fCHxvbk1sYyuwkVQgJNiD/ts1O+6VnbqQZYf6XxfL1C+3gRySIS8ea2t/ic9RLRMnELbT/fKv2d0aklImtAvOSblzrHT+nBMop6NB1kt13L/NDqZD6MTg4ODHckIWruwxpORgmdBeOzR1TPZyiWB+2b7oa8/InpUiejfmOjwJ2R2WSRiWCfk1lElIfZS9/sWu5c5/+IXaYpdJhz2XRET7R/VyMQWaKCwTIorC4JKIEkz2WHUyjIP2DsuEkkoPlXJ+W1ze3ooOBtPiCcYyob3GOpY8LJPkYZkkD8skeewyYc8lEREREcXmxIULF1TP5b1799QTRERERETtGhgYUP+6afGnT5/i5MmT6klKBpYJ7TXWseRhmSQPyyR5WCbJY5cJ0+JEREREFBsGl0REREQUGwaXRERERBQbBpdEREREFBsGl0REREQUGwaXRERERBQbBpdEREREFBsGl0REREQUGwaXRERERBQbBpdEREREFBsGl0REREQUGwaXRERERBQbBpdEREREFBsGl0REREQUGwaXRERERBQbBpdEREREFBsGl0REREQUGwaXRERERBQbBpdEREREFJsTFy5c+NhMU8Lcu3fPTBEREZFtYGDATFHSnBgcHFTB5dOnT3Hy5En1JCXD0tIShoaGzCMiIiKS2D4mjx1HMi1ORERERLFhcElEREREsWFwSURERESxYXBJRERERLFhcElEHZjE/NKSGlTf8Lc4g1HzLr9RzCwuYbEU/uquXZ7BYkvLcUSZ9W/cvrKsFjFz2TxU5HPz4v+e0dKi2G7B9xERtY/BJRF1rHp3SF2x6fsbmcaCeX3fTM1j6UoeNWt5yo/zKB63AFNI9RV8QWOoyxmk69uomocy8D/TI8pzE+g9d9y2GBHFjcElER1yo5g5n0V9dQ4TJfOUMDteRjWVR2HKPHEs1FGvZ1G41Ty8HD3XC2w89E4CpgrIYx3ltVprwSkRURMMLolo79ip6sUCuszTmk6T6zT2IuZvLfpT2b40d5N07eUz6E3VsX4/2F86i4mhIV/AqVO/5juteU3eEo/tgEzN25tn1Of0++bFsuvX5k0gq77PeX9w2WUvq/PaLfFZ63OS77P2MsnPLYr3q20WvT3WVyqodxd83+mneynt7TWZE8G5DDZLa6gii9yxCsiJKG4MLomoY9lhKxAyf15QI4LHV/PA6pxOVa+I96fMS8JoaQx5VDCn0tjLQLf1ohwTaKe579aQv+IfI+h6vgsp1LB1xzyOIoKzYl8NZTW/OTHnPIomeJtdq4r559zvlz17qfo6Hsrv9H3OpNt9PYNZpLf1OqpAVry/cNpZL/H+zRTyLznvF+s1nHWHE8xtp8WnPTKI9T4rlvF0wT+GMiXevSJfG8F01Pp+OI3bq3Vkz0cNCciiK2Vvr0nkup3gfBZl+dlc6JYmImoJg0si6ljYmEu3pzDYo1gqo1LXk7r3LKV7y9RjHdS4pnLI1isoO9+lPru7HjXZO4fNNTEnaQHTK1ZAGeixy3alUF3RY0dVr95q2XxOLOl7smfQC0RlKtrXa1qasMadjiJzWk1ocr3EnNbMei1MLQfGPXrzdZYx1XPGChK9zzazMHVbBc9jYRdPyWVwt4OgHi+7werC/fXA+hERtYfBJRHtjYYexQVsPTaTqvcMqG1ZQZllNJMGUnkU3R7RIvLi/elMSLD04bYI79LINL3KWQd59W0vlPOze+xkT54TxOnPpfqKXu/slbxYrybz86Xzx9BrnpbUevkupLHpbeLrDR4WAXGqS7zSLhOY9o01pM/lMnjbQY9XRXfBm6davyz69+qqfiI68hhcEtHeaAj67F68KrbrEcGisLBVE0GYl1p2/kamQoLROw+xXk+FXOVs3/pIB7aprugwze2x8/Xs6c/Ji4Xs5WiWlp58SQRnm2X3fctuQG3WKzJY1NuksTd4wutlbEdpwqTkc+YJKTDeUvUuV92Uv/M3JwJtf48pEVHrGFwS0d4wQZ873lAFMnpSBm0PN+wAZhKFPmvMpUxT21d6m97A8ItUnF66ou91NaZTBE7LJiD1j6s0PXZ2elgtbxaF4TQq73nhnPycfQW1vrgnYvyn43RGr5dY7v5u9YwWSL+PlvqtQFNvE3uspLq4Zxe3U1JXzHdnvXnIMoAZSyqosaX2NjBUoJ3qxZmmvcFEROEYXBJRx8Iu6PECLxH0jcjgxqRcr3ShtqleUJxxgTr1ncO2PeZShDsTNytIO99/RV8YZF/57SPHOdrvF3/FnnXM2b1+4j1zq2kU1OtFfTHRuB1W6eAOzoU8Dt/nxPf2AZWb0b2Jakymk9J/FViW6+UEm3K97orw0iznmAj07BT5wtSIvmDIzKvQXUV5V/cNDYxllUMVHm+Z79MBfXUtZE2CJwZERG04MTg4+LGcePr0KU6ePKmepGSQjYtMUREdB7JHsNi1jCFfwHfUyV/K6cf2zSZXfxNRA7aPyWPHkey5JKIDIVO+3m12dC9a9AU3R4S5L6aXYpdp8RZuo0REdIgwuCSiAyHTx3Cvwi4gu1kOv2DnKLkzjeXNbMspdiKiw4hp8QRjtz8REVEjto/Jw7Q4EREREe2JExcuXFA9l5Q89+7dM1NERERkGxgYMFOUNEyLJxjLhPYa61jysEySh2WSPCyT5LHLhGlxIiIiIooNg0siIiIiig2DSyIiIiKKDYNLIiIiIooNg0siIiIiig2DSyIiIiKKDYNLIiIiIooNg0siIiIiig2DSyIiIiKKDYNLIiIiIooNg0siIiIiig2DSyIiIiKKDYNLIiIiIooNg0siIiIiig2DSyIiIiKKDYNLIiIiIooNg0siIiIiig2DSyIiIiKKDYNLIiIiIorNiQsXLnxspilh7t27Z6aIiIjINjAwYKYoaU4MDg6q4PLp06c4efKkepKSYWlpCUNDQ+YRERERSWwfk8eOI5kWJyIiIqLYMLgkIiIiotgwuCQiIiKi2DC4JCIiIqLYMLgkol2axPzSEuanzMMDNnlrSQ32d/6Sslx74vIMFsU6LpZGzRMOWSaLmLlsHiryuXnxf0vk54mIOsfgkoiOiFHMLC6hcLqCuaEhdSXp0M0K0sNHPMAUUn0Ff9AY5nIG6fo2quahNHquF9gUz/ScEVuPiCgeDC6J6GiYKiCfqqI8Mo0F8xTuTOP2ah3Z8zNHOHiqo17PonCreXipAsmNh962EeFooQ9Yf28NtVQehSMegBPR/mFwSUR7zpeqDgZBJjWrX7dTuboncrE0o9Lu6vXF6CBxMpcFNtcwax47FqZGMGQHnCo97MzP6tWcmheP7bSxM39njhGfE+T6Ld6a1+vhLKNvvcSfb731d+vXFjF/a9G/bpHbJNz6SgX17kKTHtpRnOkR77vvbQVM5ZCtr+PhnVmsbQLZ3I59n0RELWFwSUR7arS0aKWqy6iKIMgXsF3Jo3ZXp7HnVoH8Ff+4wFRfL7ZvytfnUEEexdAeulFkTgP1bTvpG0YGdQWkV+d02vxuFdlhE7yV1iAeIecEaJfPoDdVNwFZ4HMq3e4P+lLdwLJ8TQWy4v2veusl31/v7nffP1oaE2vibJNloDulX1D822Tobq1hmzT4cKce2iy6UjVs3TEPBRmM101P5ux7cvlyzedBRNQiBpdEtIdkj1nKDWJEGIOyCIJSzhg/2XsmQrq1knoRC1PL/gBP2lzGtAqKFjC9IoLH3QRBvoBRKJVRqafQe04uTaAH7/kupJx5q89VsTxlPndnGsubzucMX6+pWNaRIUyY9VLfZSajtolL9ShWUHY+q5YxsE1CLEzdVsH3WNjFOfI7fcs3iVy3vT4Psd7CPIiIWsHgkoj2kOwxA2pbJogJGM2kZXej7yKTIF9v5IfbsMIwywK2HgOprqx5HEEFef4ePJvdgyd79qprJhxTn8ui4Kaql1Dobj4/31CA82lruVvYJqk8iu68isiL96cz4X2SHh18p/rGGtLo8jvt7Tha6hdLYa+PnsfRHptKRPuFwSUR7aEqtkVUFRUYLWzVZIQmwpxovgDO1wPoN7sW0atpj6VUwWkamagxjG4Pnu7Zc3pU9eeqKKs0tvU3HhzhaVyeQX93HRWVzhd/b62bF6QWtknduuLd/I04vYzNlCZQ3kwh/1LOPCEFx1vqntOqk3Z3/mTqPtWLM1HbhoioRQwuiWgPLeDhhpUGFyFeoc9KCQfGOeoeNSuok9yAcRQz58Mv2lFM+rjgu+hnEvPDWdRXy/ozKni00tnqCnMrTW6WNzssx1eaz0gm6OwPXNzT/P6QKXQ9r6cmX8pbQXH4NnHJbWJfvW0u7mn1dkqz43Jcq+yXNGRKH/LCHetxKrCNpeC2ISLqEINLIopFdthJsZo/E+TJq7XLj500bwHZzbLVCzeLCXMvSvmZYh9QuTnhCx7rm0C/+mxRXwQT1Vso08IjQ9a89Pxw1+71k+8po9ZX1K+LwLN6d8SM6dQW7q/Lm/v4r6wOfq5hPQLUmExvm+TWRMBnBZvO+Ei9nDls22MuA9tk6UoeWJ3zxm/uKDCGU/b2Pt4Sa6CpQDc0QDdBbyv3zCQiauLE4ODgx3Li6dOnOHnypHqSkkE2LDJdRXQ8ySu0i+jdmGstJXyIySvqi13L0Wl2IvJh+5g8dhzJnksion2m7otppdjVUIEdb6NERHQ4MLgkItpn8qp0tJpiJyI6ZJgWTzB2+xMRETVi+5g8TIsTERER0Z44ceHCBdVzSclz7949M0VERES2gYEBM0XJAvz/FZP6jBj6oq0AAAAASUVORK5CYII=;" vertex="1" parent="1">
          <mxGeometry x="3890" y="426.25" width="663" height="255" as="geometry" />
        </mxCell>
        <mxCell id="hvOdPJzpOSWR4C87Uo2s-77" value="&lt;font size=&quot;1&quot;&gt;&lt;b style=&quot;font-size: 30px;&quot;&gt;1&lt;/b&gt;&lt;/font&gt;" style="ellipse;whiteSpace=wrap;html=1;aspect=fixed;fillColor=#008a00;fontColor=#ffffff;strokeColor=#005700;" vertex="1" parent="1">
          <mxGeometry x="3245" y="408" width="80" height="80" as="geometry" />
        </mxCell>
        <mxCell id="hvOdPJzpOSWR4C87Uo2s-78" value="#" style="text;html=1;align=center;verticalAlign=middle;resizable=0;points=[];autosize=1;strokeColor=none;fillColor=none;fontColor=#FFFCFE;" vertex="1" parent="1">
          <mxGeometry x="3270" y="408" width="30" height="30" as="geometry" />
        </mxCell>
        <mxCell id="hvOdPJzpOSWR4C87Uo2s-79" value="&lt;b&gt;&lt;font style=&quot;font-size: 36px;&quot;&gt;GetAvailableBuses&lt;/font&gt;&lt;/b&gt;" style="text;html=1;align=center;verticalAlign=middle;whiteSpace=wrap;rounded=0;" vertex="1" parent="1">
          <mxGeometry x="2845" y="294.25" width="270" height="30" as="geometry" />
        </mxCell>
        <mxCell id="hvOdPJzpOSWR4C87Uo2s-80" value="&lt;font size=&quot;1&quot;&gt;&lt;b style=&quot;font-size: 30px;&quot;&gt;2&lt;/b&gt;&lt;/font&gt;" style="ellipse;whiteSpace=wrap;html=1;aspect=fixed;fillColor=#0050ef;fontColor=#ffffff;strokeColor=#001DBC;" vertex="1" parent="1">
          <mxGeometry x="3245" y="548" width="80" height="80" as="geometry" />
        </mxCell>
        <mxCell id="hvOdPJzpOSWR4C87Uo2s-81" value="#" style="text;html=1;align=center;verticalAlign=middle;resizable=0;points=[];autosize=1;strokeColor=none;fillColor=none;fontColor=#FFFCFE;" vertex="1" parent="1">
          <mxGeometry x="3270" y="548" width="30" height="30" as="geometry" />
        </mxCell>
        <mxCell id="hvOdPJzpOSWR4C87Uo2s-82" value="&lt;div style=&quot;&quot;&gt;&lt;br&gt;&lt;/div&gt;&lt;div&gt;&lt;div style=&quot;&quot;&gt;&lt;font style=&quot;font-size: 21px;&quot;&gt;E = Edges,&amp;nbsp;&lt;/font&gt;&lt;span style=&quot;font-size: 21px; background-color: initial;&quot;&gt;N = Nodes&lt;/span&gt;&lt;/div&gt;&lt;div style=&quot;&quot;&gt;&lt;font style=&quot;font-size: 21px;&quot;&gt;&lt;br&gt;&lt;/font&gt;&lt;/div&gt;&lt;div style=&quot;&quot;&gt;&lt;font style=&quot;font-size: 21px;&quot;&gt;Cyclomatic Complexity (CC) = E - N +2&lt;/font&gt;&lt;/div&gt;&lt;div style=&quot;&quot;&gt;&lt;font style=&quot;font-size: 21px;&quot;&gt;E = 18, N = 14&lt;/font&gt;&lt;/div&gt;&lt;div style=&quot;&quot;&gt;&lt;font style=&quot;font-size: 21px;&quot;&gt;CC = 18 - 14 + 2&lt;/font&gt;&lt;/div&gt;&lt;div style=&quot;&quot;&gt;&lt;font style=&quot;font-size: 21px;&quot;&gt;&lt;br&gt;&lt;/font&gt;&lt;/div&gt;&lt;div style=&quot;&quot;&gt;&lt;font style=&quot;font-size: 21px;&quot;&gt;CC = 6&lt;/font&gt;&lt;/div&gt;&lt;/div&gt;" style="rounded=1;whiteSpace=wrap;html=1;align=center;" vertex="1" parent="1">
          <mxGeometry x="3140" y="993.75" width="440" height="231.5" as="geometry" />
        </mxCell>
        <mxCell id="hvOdPJzpOSWR4C87Uo2s-95" value="" style="endArrow=classic;html=1;rounded=0;" edge="1" parent="1" source="hvOdPJzpOSWR4C87Uo2s-77" target="hvOdPJzpOSWR4C87Uo2s-80">
          <mxGeometry width="50" height="50" relative="1" as="geometry">
            <mxPoint x="3435" y="488" as="sourcePoint" />
            <mxPoint x="3485" y="438" as="targetPoint" />
          </mxGeometry>
        </mxCell>
      </root>
    </mxGraphModel>
  </diagram>
</mxfile>
